<?xml version="1.0" encoding="UTF-8"?>
<svg version="1.1" xmlns="http://www.w3.org/2000/svg" width="581" height="576">
<path d="M0 0 C191.73 0 383.46 0 581 0 C581 190.08 581 380.16 581 576 C389.27 576 197.54 576 0 576 C0 385.92 0 195.84 0 0 Z " fill="#102C57" transform="translate(0,0)"/>
<path d="M0 0 C0 147.18 0 294.36 0 446 C-191.73 446 -383.46 446 -581 446 C-581 426.53 -581 407.06 -581 387 C-580.67 387 -580.34 387 -580 387 C-579.87625 387.8971875 -579.7525 388.794375 -579.625 389.71875 C-576.59899091 408.026105 -568.09743255 422.63746463 -553.1875 433.875 C-543.56209008 440.1139741 -533.38388118 443.79072325 -522 445 C-521.855625 443.72125 -521.71125 442.4425 -521.5625 441.125 C-519.29430335 431.11364928 -509.2104245 424.21326081 -501.85546875 417.6015625 C-498.79345307 414.81181908 -495.88600009 411.90626056 -492.98413086 408.95263672 C-491.13364375 407.13152242 -489.23438566 405.4257884 -487.265625 403.734375 C-483.07555281 400.0934401 -479.0294478 396.31695738 -475 392.5 C-470.37089098 388.11500415 -465.69012561 383.81899088 -460.875 379.63867188 C-458.2054458 377.30559274 -455.6041206 374.90598099 -453 372.5 C-445.68518725 365.76987079 -438.17668584 359.28601715 -430.62548828 352.82446289 C-426.23579666 349.06626059 -421.86388463 345.28812187 -417.5 341.5 C-398.15554445 324.71993191 -398.15554445 324.71993191 -390.5625 318.5625 C-384.87809402 313.944962 -379.36111183 309.14579932 -373.83984375 304.3359375 C-370.74938632 301.64498013 -367.63900528 298.97859375 -364.52001953 296.32080078 C-359.71245017 292.22408857 -354.96377088 288.08771069 -350.3125 283.8125 C-346.85984304 280.64169258 -343.34469034 277.61964969 -339.6875 274.6875 C-334.63163433 270.61251555 -329.91812777 266.24768006 -325.19433594 261.79980469 C-320.87808563 257.75760202 -316.39514634 254.004192 -311.77734375 250.30859375 C-308.57556942 247.64720327 -305.53768068 244.84534915 -302.5 242 C-297.71688315 237.52079645 -292.79184532 233.31548161 -287.6796875 229.2109375 C-284.86746685 226.8906505 -282.18202737 224.46928866 -279.5 222 C-275.0301488 217.88621091 -270.40955107 214.02912703 -265.68359375 210.21484375 C-263.05291443 208.04367173 -260.52057576 205.79758643 -258 203.5 C-253.80270966 199.67829137 -249.46289769 196.08525811 -245.05078125 192.515625 C-241.47943376 189.57074948 -237.9878836 186.54279913 -234.5 183.5 C-229.34435937 179.00479267 -224.12488576 174.61376336 -218.80859375 170.30859375 C-215.49701407 167.58655815 -212.2469 164.79856861 -209 162 C-203.98828417 157.68179728 -198.91781421 153.45093154 -193.78125 149.28125 C-190.63615929 146.70156886 -187.53529458 144.07357589 -184.4375 141.4375 C-179.96427469 137.63542091 -175.4365427 133.92116654 -170.8359375 130.2734375 C-167.15332244 127.32125848 -163.51472233 124.31729706 -159.875 121.3125 C-148.76874865 112.1508561 -137.63988274 103.02522123 -126.29052734 94.16552734 C-121.79269083 90.64597982 -117.36009009 87.05095773 -112.9375 83.4375 C-106.62611059 78.28792361 -100.23800777 73.26515976 -93.75292969 68.33496094 C-91.82393073 66.86591271 -89.89995149 65.39044753 -87.9765625 63.9140625 C-62.52581452 44.38767494 -36.73264259 25.30467844 -10.47998047 6.86865234 C-7.81983048 4.99948042 -5.17409885 3.13240527 -2.5859375 1.1640625 C-1 0 -1 0 0 0 Z " fill="#A4272A" transform="translate(581,130)"/>
<path d="M0 0 C0.66 0.33 1.32 0.66 2 1 C1.29037109 1.67482422 1.29037109 1.67482422 0.56640625 2.36328125 C-4.24447727 7.04287361 -8.51470628 11.98057764 -12.71484375 17.2109375 C-14.90460801 19.88357285 -17.17111198 22.44834878 -19.5 25 C-23.34191939 29.22013944 -26.96115221 33.58027184 -30.55078125 38.015625 C-33.31810802 41.38761487 -36.15150415 44.69662321 -39 48 C-43.3225777 53.01655087 -47.55779121 58.09183187 -51.73046875 63.234375 C-54.24099886 66.29367847 -56.80516192 69.30309621 -59.375 72.3125 C-63.17605008 76.77068526 -66.84601964 81.30909745 -70.4375 85.9375 C-74.16593794 90.74157697 -78.01379545 95.40768711 -82 100 C-86.92610776 105.68049965 -91.61403627 111.50868308 -96.2265625 117.4453125 C-98.58011123 120.47368996 -100.9729414 123.46825368 -103.37890625 126.45507812 C-110.41023414 135.18457268 -117.23507969 144.06300969 -124 153 C-124.75796875 153.99966797 -124.75796875 153.99966797 -125.53125 155.01953125 C-148.04007271 184.73821123 -168.89330007 215.61377316 -189 247 C-189.58185059 247.90766113 -190.16370117 248.81532227 -190.76318359 249.75048828 C-194.11629032 254.98257252 -197.46582498 260.2169246 -200.8125 265.453125 C-203.57804931 269.7794554 -206.3490257 274.10222678 -209.125 278.421875 C-227.37190225 306.72873215 -227.37190225 306.72873215 -244 336 C-244.6084375 337.12535156 -245.216875 338.25070312 -245.84375 339.41015625 C-250.47409458 348.56870545 -251.07197361 355.07451713 -253 366 C-310.75 366 -368.5 366 -428 366 C-421.30875576 358.19354839 -421.30875576 358.19354839 -418.5 355.875 C-414.55975492 352.52579168 -410.77687122 349.03053185 -407 345.5 C-402.74382384 341.52861128 -398.46295696 337.60752939 -394.0546875 333.8046875 C-391.33075255 331.4121819 -388.66658372 328.9559232 -386 326.5 C-382.06375933 322.87587877 -378.09218675 319.30281766 -374.046875 315.80078125 C-371.55925274 313.61224335 -369.12646548 311.36760809 -366.6875 309.125 C-363.06476095 305.81663086 -359.38307109 302.63987642 -355.5625 299.5625 C-351.56773566 296.34054925 -347.75468333 292.99322017 -344 289.5 C-339.47011346 285.28974225 -334.79707608 281.3236197 -329.98046875 277.4453125 C-326.4270946 274.52996228 -322.96276267 271.52188157 -319.5 268.5 C-314.34168708 264.00229726 -309.11841954 259.61003776 -303.80078125 255.30078125 C-299.92753632 252.11899428 -296.13097615 248.85131386 -292.33178711 245.58178711 C-288.40400699 242.2017459 -284.46011599 238.84208416 -280.5 235.5 C-267.52006285 224.5625472 -267.52006285 224.5625472 -254.8125 213.3125 C-251.52057795 210.3208184 -248.15408693 207.47475577 -244.6875 204.6875 C-239.87254256 200.79614512 -235.34912829 196.66870856 -230.83447266 192.43994141 C-227.50897767 189.34263774 -224.11307457 186.40400241 -220.5625 183.5625 C-216.187478 180.05356678 -212.07980841 176.34153921 -208 172.5 C-203.06482764 167.8533639 -198.00524355 163.48073751 -192.7109375 159.2421875 C-189.71095373 156.76093291 -186.84849592 154.15132395 -184 151.5 C-179.39003752 147.21036948 -174.62216205 143.19588653 -169.71484375 139.24609375 C-166.89326505 136.9116941 -164.19409288 134.48009402 -161.5 132 C-157.10703825 127.96120914 -152.5819909 124.15568397 -147.94140625 120.40625 C-144.62611769 117.69414143 -141.37136616 114.91887211 -138.125 112.125 C-128.77426577 104.08214123 -119.38381047 96.10123734 -109.81640625 88.31640625 C-106.66214618 85.72212578 -103.54803805 83.08385983 -100.4375 80.4375 C-95.83320275 76.52351028 -91.17232402 72.69739646 -86.4375 68.94140625 C-83.89887058 66.91945301 -81.3846667 64.87027731 -78.875 62.8125 C-67.56571042 53.54494394 -56.22451464 44.32906542 -44.70019531 35.32958984 C-43.01370791 34.01071989 -41.33047307 32.68782296 -39.6484375 31.36328125 C-33.03450248 26.15516531 -26.39937612 20.97530242 -19.75 15.8125 C-9.53343659 8.29701052 -9.53343659 8.29701052 0 0 Z " fill="#102B56" transform="translate(532,210)"/>
<path d="M0 0 C0.33 0 0.66 0 1 0 C1.34805595 12.882069 1.61431579 25.76301466 1.77718258 38.64883327 C1.85536843 44.63306023 1.96132721 50.61406409 2.1315918 56.59643555 C2.29498941 62.37391138 2.3843385 68.14829572 2.42315865 73.92790413 C2.45080651 76.12871052 2.50480741 78.32935342 2.58595085 80.5288372 C3.18133709 97.34130185 3.18133709 97.34130185 -0.46361351 101.78390884 C-4.01833642 104.7505782 -7.9240919 106.58276371 -12.21467686 108.24785805 C-14.71906959 109.3029381 -16.80847415 110.78869127 -18.98046875 112.40625 C-19.68244385 112.91736328 -20.38441895 113.42847656 -21.10766602 113.95507812 C-22.13718384 114.71981445 -22.13718384 114.71981445 -23.1875 115.5 C-23.94667725 116.05623047 -24.70585449 116.61246094 -25.48803711 117.18554688 C-27.66407745 118.78323379 -29.83318822 120.38982927 -32 122 C-33.05960938 122.78375 -34.11921875 123.5675 -35.2109375 124.375 C-38.15301867 126.56745501 -41.07932458 128.7791081 -44 131 C-44.92449951 131.70261963 -44.92449951 131.70261963 -45.86767578 132.41943359 C-60.47469245 143.52984467 -75.03317987 154.69967695 -89.24243164 166.31640625 C-93.45798749 169.75981882 -97.70958453 173.15041701 -102 176.5 C-109.14159286 182.07933747 -116.17309351 187.79016794 -123.19140625 193.5234375 C-124.7923548 194.83047541 -126.39597976 196.13423356 -128 197.4375 C-133.46925218 201.88921689 -138.86600735 206.41832585 -144.23730469 210.98706055 C-147.42842024 213.69382726 -150.65382001 216.3428545 -153.9375 218.9375 C-158.65010624 222.67086338 -163.20111794 226.57503122 -167.75097656 230.50317383 C-171.34997742 233.60459668 -174.9900575 236.64063569 -178.6875 239.625 C-183.42546326 243.47111135 -187.94089728 247.52001371 -192.43359375 251.6484375 C-198.16828574 256.90305634 -204.08639831 261.94879856 -210 267 C-210 262.83054119 -207.95175109 260.19098168 -205.8125 256.75 C-205.10347534 255.60023682 -205.10347534 255.60023682 -204.38012695 254.42724609 C-184.31660373 222.34161789 -162.39125754 190.81508812 -138.32470703 161.62011719 C-136.67941613 159.6079258 -135.08302866 157.56143781 -133.5 155.5 C-125.90107011 145.64396222 -117.95017966 136.05438355 -109.8815918 126.58081055 C-107.06720721 123.27366485 -104.29974728 119.93368785 -101.5625 116.5625 C-96.66427761 110.54866823 -91.61086754 104.67366596 -86.54833984 98.79833984 C-84.02707065 95.8699783 -81.51387757 92.93470651 -79 90 C-78.00004023 88.83329885 -77.00004019 87.66663221 -76 86.5 C-75.2575 85.63375 -75.2575 85.63375 -74.5 84.75 C-73 83 -71.5 81.25 -70 79.5 C-69.25713745 78.6332666 -69.25713745 78.6332666 -68.49926758 77.74902344 C-67.5018699 76.58547402 -66.50431197 75.42206196 -65.5065918 74.25878906 C-62.96542699 71.29554935 -60.42731801 68.3297803 -57.89453125 65.359375 C-52.67544717 59.24396817 -47.4141398 53.18183454 -42.01171875 47.2265625 C-40.15265331 45.16895609 -38.32071642 43.09153237 -36.5 41 C-33.10505061 37.10209515 -29.64334116 33.26652943 -26.1796875 29.4296875 C-24.30854906 27.3439382 -22.46075169 25.24182372 -20.625 23.125 C-17.15784834 19.14060427 -13.58024491 15.25989799 -9.99902344 11.37841797 C-7.39672821 8.55034869 -4.84990413 5.69006684 -2.375 2.75 C-1.59125 1.8425 -0.8075 0.935 0 0 Z " fill="#112B56" transform="translate(580,214)"/>
<path d="M0 0 C0 38.28 0 76.56 0 116 C-39.6 116 -79.2 116 -120 116 C-117.1921055 113.1921055 -114.6649232 110.8856745 -111.5625 108.5 C-102.82539334 101.58258616 -94.75538163 93.87617385 -86.95825195 85.92382812 C-85.0943054 84.09264761 -83.17102827 82.3975418 -81.1796875 80.70703125 C-77.32558686 77.35500415 -73.86938483 73.77626081 -70.4375 70 C-62.86805409 61.7871909 -54.97945725 53.9152818 -47.03295898 46.0703125 C-41.18015515 40.28353979 -41.18015515 40.28353979 -35.66796875 34.17578125 C-30.80990257 28.49863093 -25.44528937 23.29653553 -20.15600586 18.02563477 C-18.30269966 16.17772821 -16.4548493 14.32448497 -14.60742188 12.47070312 C-13.42219583 11.28613724 -12.23665996 10.10188125 -11.05078125 8.91796875 C-10.50279373 8.367957 -9.95480621 7.81794525 -9.39021301 7.25126648 C-2.09452162 0 -2.09452162 0 0 0 Z " fill="#112C57" transform="translate(581,460)"/>
<path d="M0 0 C0 4.25663692 -2.4451756 6.31810508 -5.0625 9.4375 C-9.99337545 15.45002037 -14.73584413 21.57226224 -19.375 27.8125 C-24.16403046 34.24017197 -29.00061193 40.62261412 -33.9375 46.9375 C-44.74934178 60.77800628 -55.39442319 74.73959336 -65.77905273 88.90380859 C-69.9980404 94.65561332 -74.27081832 100.36479002 -78.5625 106.0625 C-84.97482129 114.58859189 -91.27359809 123.18961953 -97.4765625 131.86914062 C-98.46155401 133.24686593 -99.44840784 134.62326253 -100.4375 135.99804688 C-101.35286198 137.2706543 -102.26496085 138.54561727 -103.17326355 139.82327271 C-104.13365849 141.16420806 -105.10561738 142.49699624 -106.0929718 143.81820679 C-109.34534308 148.27698867 -111.91814724 152.75925854 -114.3190918 157.73193359 C-123.24028586 175.36423268 -123.24028586 175.36423268 -130.81437302 178.83029556 C-140.66578517 181.9036954 -151.63619456 180.64265866 -161.75817871 179.85394287 C-165.73717291 179.57412655 -169.72097241 179.45371259 -173.70703125 179.31835938 C-181.48423755 179.03145588 -189.23806439 178.57316998 -197 178 C-193.67683541 174.63804091 -190.31091661 171.58383169 -186.625 168.625 C-179.72993343 162.93391653 -173.43569735 156.6322087 -167.125 150.3125 C-166.62736145 149.81558655 -166.1297229 149.3186731 -165.61700439 148.80670166 C-160.47755393 143.6664044 -155.46001014 138.46899385 -150.72558594 132.95043945 C-147.33681905 129.12009726 -143.68665836 125.54330819 -140.0625 121.9375 C-139.30259766 121.17373047 -138.54269531 120.40996094 -137.75976562 119.62304688 C-133.55757573 115.42803408 -129.27620575 111.39654554 -124.75488281 107.54663086 C-122.97655303 105.97933548 -121.32879042 104.33432994 -119.6875 102.625 C-116.92656556 99.81431899 -114.01210771 97.3382822 -110.9375 94.875 C-106.4396397 91.25943603 -102.19912231 87.45719521 -98 83.5 C-93.04293536 78.83266886 -87.96169187 74.43418075 -82.64453125 70.17578125 C-79.84160752 67.869683 -77.16996725 65.45848469 -74.5 63 C-70.0301488 58.88621091 -65.40955107 55.02912703 -60.68359375 51.21484375 C-58.05291443 49.04367173 -55.52057576 46.79758643 -53 44.5 C-48.77635723 40.65489125 -44.4130207 37.03241829 -39.97265625 33.44140625 C-36.66249503 30.72281129 -33.42484282 27.92938239 -30.1875 25.125 C-24.89113239 20.54473221 -19.46396383 16.17664144 -13.92993164 11.88793945 C-9.1005731 8.1276281 -4.49776233 4.1526959 0 0 Z " fill="#112B56" transform="translate(525,398)"/>
<path d="M0 0 C0.33 0 0.66 0 1 0 C1.12375 0.8971875 1.2475 1.794375 1.375 2.71875 C4.40100909 21.026105 12.90256745 35.63746463 27.8125 46.875 C37.43790992 53.1139741 47.61611882 56.79072325 59 58 C59 58.33 59 58.66 59 59 C39.53 59 20.06 59 0 59 C0 39.53 0 20.06 0 0 Z " fill="#FBFBFC" transform="translate(0,517)"/>
<path d="M0 0 C18.81 0 37.62 0 57 0 C57 19.47 57 38.94 57 59 C56.67 59 56.34 59 56 59 C55.91363281 58.27296875 55.82726562 57.5459375 55.73828125 56.796875 C53.45325625 40.44531996 45.79805919 25.61635047 33 15 C23.07501793 7.78775942 12.20905382 2.74941193 0 1 C0 0.67 0 0.34 0 0 Z " fill="#FBFBFC" transform="translate(524,0)"/>
<path d="M0 0 C0.33 0 0.66 0 1 0 C1 18.48 1 36.96 1 56 C-17.48 56 -35.96 56 -55 56 C-55 55.67 -55 55.34 -55 55 C-53.90042969 54.70867188 -52.80085937 54.41734375 -51.66796875 54.1171875 C-32.84358959 48.97414773 -18.19883905 40.17123572 -8 23 C-7.52949219 22.21109375 -7.05898438 21.4221875 -6.57421875 20.609375 C-2.99179268 14.05744532 -1.40682858 7.2972084 0 0 Z " fill="#FCFCFC" transform="translate(580,520)"/>
<path d="M0 0 C18.48 0 36.96 0 56 0 C56 0.33 56 0.66 56 1 C55.06800781 1.20753906 54.13601562 1.41507812 53.17578125 1.62890625 C35.25260958 5.96018838 20.59037947 14.82457517 10.45703125 30.5546875 C9.97621094 31.36164062 9.49539063 32.16859375 9 33 C8.52949219 33.76570313 8.05898437 34.53140625 7.57421875 35.3203125 C3.57467854 42.46993305 2.31010566 50.01155085 1 58 C0.67 58 0.34 58 0 58 C0 38.86 0 19.72 0 0 Z " fill="#FCFCFD" transform="translate(0,0)"/>
<path d="M0 0 C0.33 0 0.66 0 1 0 C2.30129742 18.45840347 2.30129742 18.45840347 -0.5 23.9296875 C-2.54854268 25.92221535 -4.60403367 27.44774147 -7 29 C-8.37059343 30.16850215 -9.72519304 31.35604499 -11.0625 32.5625 C-12.05443359 33.41521484 -12.05443359 33.41521484 -13.06640625 34.28515625 C-14.95494597 35.96004299 -16.73155648 37.69947587 -18.5 39.5 C-20.83025445 41.87224102 -23.22104406 44.09113517 -25.75 46.25 C-29.15838241 49.18279417 -32.34403021 52.30068641 -35.5 55.5 C-39.83399041 59.88234735 -44.28024622 64.03757061 -49 68 C-49 64.55488929 -48.54683593 64.06361781 -46.46484375 61.47265625 C-45.91022461 60.77293701 -45.35560547 60.07321777 -44.78417969 59.35229492 C-44.17477539 58.5966626 -43.56537109 57.84103027 -42.9375 57.0625 C-41.64812137 55.43617747 -40.36041987 53.80852417 -39.07421875 52.1796875 C-38.0675415 50.90689941 -38.0675415 50.90689941 -37.04052734 49.60839844 C-33.71026801 45.35134045 -30.47990182 41.02091026 -27.25 36.6875 C-23.10452969 31.13284516 -18.94104318 25.59737478 -14.6875 20.125 C-10.68334513 14.95856528 -6.86815494 9.67806795 -3.13354492 4.31494141 C-2.11227927 2.86002746 -1.05933822 1.42743149 0 0 Z " fill="#162B54" transform="translate(580,387)"/>
</svg>
