<svg width="1250" height="384" viewBox="0 0 1250 384" fill="none" xmlns="http://www.w3.org/2000/svg">
<g clip-path="url(#clip0_5_1868)">
<mask id="mask0_5_1868" style="mask-type:luminance" maskUnits="userSpaceOnUse" x="0" y="0" width="1250" height="384">
<path d="M0 0.104248H1249.33V383.896H0V0.104248Z" fill="white"/>
</mask>
<g mask="url(#mask0_5_1868)">
<path d="M0 0.104248H1249.33V383.896H0V0.104248Z" fill="white"/>
<path d="M0 0.104248H1249.33V383.896H0V0.104248Z" fill="#B42625"/>
</g>
<mask id="mask1_5_1868" style="mask-type:luminance" maskUnits="userSpaceOnUse" x="0" y="0" width="184" height="154">
<path d="M0 0.104248H184V153.333H0V0.104248Z" fill="white"/>
</mask>
<g mask="url(#mask1_5_1868)">
<mask id="mask2_5_1868" style="mask-type:luminance" maskUnits="userSpaceOnUse" x="-151" y="-178" width="335" height="331">
<path d="M183.214 -40.0572L-21.4375 152.375L-150.74 14.8699L53.9114 -177.568L183.214 -40.0572Z" fill="white"/>
</mask>
<g mask="url(#mask2_5_1868)">
<mask id="mask3_5_1868" style="mask-type:luminance" maskUnits="userSpaceOnUse" x="-49" y="-82" width="233" height="235">
<path d="M183.214 -40.0572L-48.3438 -81.4114L-21.3021 152.245L183.214 -40.0572Z" fill="white"/>
</mask>
<g mask="url(#mask3_5_1868)">
<path d="M183.214 -40.0572L-21.4375 152.375L-150.74 14.8699L53.9114 -177.568L183.214 -40.0572Z" fill="#102C57"/>
</g>
</g>
</g>
<path d="M1123.46 322.979C1123.55 322.193 1123.58 321.464 1123.72 320.734C1123.87 320.068 1124.25 319.542 1124.92 319.219C1125.56 318.927 1126.17 318.901 1126.84 319.219C1127.71 319.656 1128.44 320.297 1129.06 321.026C1129.7 321.781 1129.9 322.745 1129.72 323.734C1129.64 324.287 1128.04 326.474 1127.54 326.708C1127.34 326.792 1127.14 326.88 1126.93 326.912C1126.41 326.969 1125.91 326.969 1125.39 326.995C1124.43 327.026 1124.07 326.766 1123.87 325.776C1123.67 324.87 1123.58 323.912 1123.46 322.979Z" fill="white"/>
<path d="M1104.94 322.891C1105.08 322.161 1105.17 321.552 1105.32 320.937C1105.49 320.182 1106.02 319.714 1106.69 319.365C1106.98 319.219 1107.3 319.193 1107.62 319.281C1108.32 319.453 1108.96 319.833 1109.48 320.328C1109.89 320.708 1110.15 321.203 1110.24 321.786C1110.42 322.802 1110.42 323.854 1110.91 324.781C1111.29 325.484 1110.88 326.005 1110.51 326.531C1110.42 326.646 1110.27 326.792 1110.13 326.792C1109.34 326.88 1108.52 327.083 1107.77 326.995C1106.66 326.88 1105.84 326.182 1105.46 325.135C1105.17 324.406 1105.08 323.589 1104.94 322.891Z" fill="white"/>
<path d="M1126.46 270.552C1126.26 270.464 1126.06 270.375 1125.88 270.26C1125.77 270.172 1125.68 270.057 1125.59 269.911C1124.95 268.656 1124.34 267.375 1123.99 266.01C1123.76 265.047 1124.07 264.26 1124.89 263.677C1125.47 263.271 1126.11 263.156 1126.79 263.417C1127.71 263.766 1128.42 264.406 1128.97 265.224C1129.08 265.396 1129.15 265.63 1129.17 265.833C1129.26 266.417 1129.32 267 1129.35 267.583C1129.35 268.016 1129.32 268.484 1129.23 268.891C1129.17 269.156 1128.97 269.443 1128.77 269.62C1128.07 270.203 1127.28 270.406 1126.46 270.552Z" fill="white"/>
<path d="M1123.26 213.057C1123.35 212.766 1123.35 212.417 1123.52 212.213C1123.9 211.776 1124.34 211.37 1124.8 211.021C1124.95 210.901 1125.21 210.818 1125.42 210.844C1125.91 210.875 1126.46 210.901 1126.93 211.104C1127.89 211.484 1128.77 212.068 1129.55 212.739C1129.99 213.114 1130.1 213.583 1129.93 214.135C1129.81 214.484 1129.67 214.833 1129.58 215.182C1129.46 215.562 1129.23 215.823 1128.94 216.031C1128.59 216.292 1128.21 216.526 1127.83 216.755C1126.96 217.312 1126.37 217.312 1125.62 216.698C1124.74 216 1124.05 215.156 1123.55 214.135C1123.37 213.786 1123.35 213.406 1123.26 213.057Z" fill="white"/>
<path d="M1126.08 228.437C1127.66 228.641 1128.82 229.453 1129.58 230.823C1129.67 231 1129.67 231.26 1129.61 231.463C1129.49 231.812 1129.2 232.135 1129.2 232.484C1129.17 233.531 1128.56 234.088 1127.69 234.463C1127.48 234.552 1127.28 234.667 1127.1 234.786C1126.35 235.281 1125.73 234.958 1125.36 234.463C1124.57 233.474 1123.99 232.37 1123.67 231.146C1123.46 230.359 1123.7 229.687 1124.28 229.135C1124.78 228.667 1125.36 228.349 1126.08 228.437Z" fill="white"/>
<mask id="mask4_5_1868" style="mask-type:luminance" maskUnits="userSpaceOnUse" x="1088" y="262" width="7" height="9">
<path d="M1088.22 262.667H1094.67V270.667H1088.22V262.667Z" fill="white"/>
</mask>
<g mask="url(#mask4_5_1868)">
<path d="M1088.28 266.271C1088.34 265.427 1088.63 264.698 1089.24 264.146C1089.44 263.943 1089.8 263.797 1090.11 263.766C1091.19 263.651 1092.18 263.88 1093 264.667C1093.41 265.047 1093.79 265.453 1094.14 265.922C1094.31 266.156 1094.45 266.505 1094.45 266.797C1094.43 267.99 1093.93 268.979 1092.82 269.531C1092.24 269.797 1091.63 269.969 1091.02 270.115C1090.29 270.292 1089.56 269.88 1089.18 269.271C1088.54 268.339 1088.43 267.292 1088.28 266.271Z" fill="white"/>
</g>
<path d="M1123.72 248.797C1123.72 248.01 1123.93 247.484 1124.51 247.135C1124.72 247.021 1124.89 246.901 1125.09 246.787C1125.44 246.609 1125.79 246.552 1126.17 246.641C1126.76 246.787 1127.31 246.99 1127.74 247.427C1128.44 248.094 1129.03 248.854 1129.43 249.755C1129.52 249.932 1129.55 250.224 1129.49 250.396C1129.29 251.037 1129.03 251.651 1128.36 251.969C1127.89 252.203 1127.45 252.464 1126.99 252.698C1126.64 252.875 1125.97 252.755 1125.73 252.495C1124.89 251.62 1124.28 250.63 1123.87 249.495C1123.76 249.234 1123.72 248.943 1123.72 248.797Z" fill="white"/>
<path d="M1129.52 195.349C1129.55 195.932 1129.43 196.281 1129.15 196.542C1128.65 196.979 1128.13 197.391 1127.57 197.74C1127.19 198 1126.76 198.031 1126.29 197.911C1125.56 197.74 1124.92 197.417 1124.57 196.661C1124.34 196.104 1124.05 195.609 1123.81 195.057C1123.43 194.125 1123.81 193.104 1124.66 192.583C1124.83 192.464 1125.04 192.38 1125.24 192.26C1125.65 192 1126.08 192 1126.49 192.177C1127.25 192.495 1127.92 192.901 1128.56 193.427C1129.29 193.979 1129.58 194.677 1129.52 195.349Z" fill="white"/>
<path d="M1123.67 305.151C1123.58 303.057 1125.5 302.297 1126.64 302.88C1127.86 303.521 1128.77 304.484 1129.43 305.646C1129.67 306.026 1129.58 306.552 1129.29 306.901C1128.73 307.542 1128.09 308.005 1127.22 308.094C1126.64 308.182 1126.06 308.297 1125.47 308.385C1125.07 308.443 1124.57 308.125 1124.4 307.745C1123.96 306.813 1123.72 305.823 1123.67 305.151Z" fill="white"/>
<mask id="mask5_5_1868" style="mask-type:luminance" maskUnits="userSpaceOnUse" x="1088" y="320" width="7" height="8">
<path d="M1088.22 320H1094.67V328H1088.22V320Z" fill="white"/>
</mask>
<g mask="url(#mask5_5_1868)">
<path d="M1090.84 326.995C1090.11 327.057 1089.62 326.766 1089.3 326.125C1088.72 325.047 1088.57 323.854 1088.57 322.656C1088.57 321.901 1088.98 321.287 1089.53 320.792C1089.73 320.589 1090.11 320.5 1090.41 320.5C1092.16 320.474 1093.49 321.375 1094.1 322.979C1094.22 323.271 1094.22 323.62 1094.16 323.912C1094.05 324.375 1093.87 324.781 1093.84 325.281C1093.79 326.24 1093.38 326.563 1092.3 326.823C1091.8 326.938 1091.31 326.969 1090.84 326.995Z" fill="white"/>
</g>
<mask id="mask6_5_1868" style="mask-type:luminance" maskUnits="userSpaceOnUse" x="1142" y="210" width="8" height="8">
<path d="M1142.67 210.667H1149.19V217.333H1142.67V210.667Z" fill="white"/>
</mask>
<g mask="url(#mask6_5_1868)">
<path d="M1143.47 213.464C1143.47 212.302 1144.35 211.37 1145.57 211.339C1146.91 211.313 1147.99 211.891 1148.8 212.943C1149.09 213.318 1149.07 213.755 1149.04 214.224C1148.98 214.834 1148.78 215.36 1148.19 215.677C1147.72 215.912 1147.32 216.203 1146.85 216.438C1146.01 216.844 1145.02 216.61 1144.46 215.886C1143.77 215.037 1143.47 214.25 1143.47 213.464Z" fill="white"/>
</g>
<path d="M1107.53 210.755C1107.88 210.818 1108.2 210.844 1108.49 210.932C1108.72 210.99 1108.96 211.104 1109.14 211.25C1109.92 211.979 1110.42 212.943 1110.59 213.958C1110.91 215.823 1109.6 217.224 1107.68 217.193C1107.36 217.193 1107.04 217.021 1106.86 216.755C1106.19 215.651 1105.7 214.484 1105.41 213.234C1105.23 212.474 1105.61 211.833 1105.99 211.224C1106.08 211.104 1106.25 211.021 1106.4 210.99C1106.78 210.901 1107.15 210.844 1107.53 210.755Z" fill="white"/>
<mask id="mask7_5_1868" style="mask-type:luminance" maskUnits="userSpaceOnUse" x="1142" y="228" width="8" height="7">
<path d="M1142.67 228H1149.19V234.667H1142.67V228Z" fill="white"/>
</mask>
<g mask="url(#mask7_5_1868)">
<path d="M1145.31 229.193C1146.04 229.167 1146.73 229.453 1147.32 229.922C1147.93 230.417 1148.51 231 1149.09 231.552C1149.39 231.812 1149.3 232.687 1148.98 232.979C1148.19 233.677 1147.29 234.146 1146.24 234.26C1145.36 234.38 1144.64 234.057 1144.11 233.328C1143.82 232.922 1143.62 232.427 1143.42 231.958C1143.07 231.115 1143.33 230.385 1143.91 229.745C1144.26 229.37 1144.72 229.167 1145.31 229.193Z" fill="white"/>
</g>
<path d="M1126.43 286.719C1125.88 286.688 1125.56 286.542 1125.27 286.281C1124.57 285.578 1124.14 284.734 1123.93 283.776C1123.84 283.427 1123.9 283.047 1123.96 282.667C1124.02 282.292 1124.25 282 1124.57 281.766C1125.39 281.214 1126.23 281.151 1127.07 281.677C1127.89 282.203 1128.56 282.901 1129.15 283.656C1129.52 284.182 1129.32 285.406 1128.73 285.901C1128.47 286.136 1128.12 286.365 1127.8 286.453C1127.31 286.63 1126.79 286.656 1126.43 286.719Z" fill="white"/>
<mask id="mask8_5_1868" style="mask-type:luminance" maskUnits="userSpaceOnUse" x="1088" y="280" width="7" height="8">
<path d="M1088.22 280H1094.67V288H1088.22V280Z" fill="white"/>
</mask>
<g mask="url(#mask8_5_1868)">
<path d="M1088.51 284.151C1088.43 283.281 1088.89 282.667 1089.36 282C1089.77 281.417 1090.32 281.213 1091.02 281.271C1091.92 281.328 1092.71 281.651 1093.46 282.115C1094.05 282.495 1094.31 283.047 1094.16 283.745C1094.1 284.068 1093.93 284.359 1093.93 284.651C1093.96 285.667 1093.26 286.016 1092.51 286.307C1091.98 286.51 1091.45 286.63 1090.9 286.745C1090.2 286.891 1089.65 286.63 1089.21 286.104C1088.78 285.552 1088.48 284.911 1088.51 284.151Z" fill="white"/>
</g>
<mask id="mask9_5_1868" style="mask-type:luminance" maskUnits="userSpaceOnUse" x="1142" y="246" width="8" height="8">
<path d="M1142.67 246.667H1149.19V253.333H1142.67V246.667Z" fill="white"/>
</mask>
<g mask="url(#mask9_5_1868)">
<path d="M1143.71 248.88C1143.65 247.719 1144.76 246.787 1145.95 247.021C1146.3 247.078 1146.65 247.224 1146.99 247.37C1147.32 247.516 1147.64 247.745 1147.96 247.922C1148.71 248.386 1148.95 248.912 1148.78 249.787C1148.71 250.078 1148.63 250.37 1148.54 250.63C1148.4 251.068 1148.14 251.417 1147.72 251.651C1147.23 251.969 1146.71 252.261 1146.12 252.349C1145.4 252.464 1144.78 252.172 1144.43 251.563C1143.91 250.776 1143.68 249.844 1143.71 248.88Z" fill="white"/>
</g>
<mask id="mask10_5_1868" style="mask-type:luminance" maskUnits="userSpaceOnUse" x="1088" y="302" width="7" height="8">
<path d="M1088.22 302.667H1094.67V309.333H1088.22V302.667Z" fill="white"/>
</mask>
<g mask="url(#mask10_5_1868)">
<path d="M1088.6 305.328C1088.57 304.427 1089.04 303.698 1089.71 303.115C1089.91 302.938 1090.29 302.854 1090.58 302.823C1091.74 302.792 1092.77 303.203 1093.58 304.016C1093.99 304.427 1094.28 304.891 1094.05 305.505C1094.02 305.589 1093.99 305.646 1093.99 305.734C1094.08 307.135 1093.2 307.656 1092.04 307.979C1091.43 308.151 1090.81 308.297 1090.17 308.24C1089.82 308.214 1089.56 308.068 1089.39 307.802C1088.86 307.073 1088.57 306.286 1088.6 305.328Z" fill="white"/>
</g>
<mask id="mask11_5_1868" style="mask-type:luminance" maskUnits="userSpaceOnUse" x="1142" y="284" width="8" height="7">
<path d="M1142.67 284H1149.19V290.667H1142.67V284Z" fill="white"/>
</mask>
<g mask="url(#mask11_5_1868)">
<path d="M1143.42 287.677C1143.35 286.511 1144.23 285.495 1144.99 285.229C1145.25 285.146 1145.57 285.146 1145.86 285.203C1146.97 285.438 1147.93 285.932 1148.74 286.719C1149.18 287.151 1149.24 287.88 1148.86 288.318C1148.51 288.698 1148.16 289.104 1147.67 289.281C1146.97 289.511 1146.27 289.745 1145.57 289.891C1144.76 290.068 1143.94 289.542 1143.68 288.724C1143.5 288.318 1143.44 287.88 1143.42 287.677Z" fill="white"/>
</g>
<mask id="mask12_5_1868" style="mask-type:luminance" maskUnits="userSpaceOnUse" x="1088" y="246" width="7" height="8">
<path d="M1088.22 246.667H1094.67V253.333H1088.22V246.667Z" fill="white"/>
</mask>
<g mask="url(#mask12_5_1868)">
<path d="M1090.52 246.875C1091.05 246.99 1091.54 247.021 1091.98 247.193C1092.33 247.339 1092.71 247.573 1092.94 247.865C1093.32 248.359 1093.61 248.943 1093.93 249.495C1094.02 249.609 1094.05 249.813 1094.02 249.958C1093.81 250.63 1093.72 251.359 1093.03 251.797C1092.47 252.146 1091.92 252.438 1091.28 252.552C1090.5 252.698 1089.82 252.406 1089.44 251.766C1088.98 250.979 1088.75 250.135 1088.69 249.26C1088.63 248.531 1088.92 247.833 1089.47 247.339C1089.73 247.047 1090.17 246.99 1090.52 246.875Z" fill="white"/>
</g>
<mask id="mask13_5_1868" style="mask-type:luminance" maskUnits="userSpaceOnUse" x="1142" y="302" width="8" height="8">
<path d="M1142.67 302.667H1149.19V309.333H1142.67V302.667Z" fill="white"/>
</mask>
<g mask="url(#mask13_5_1868)">
<path d="M1148.16 307.339C1147.41 307.859 1146.62 308.094 1145.8 308.151C1145.05 308.214 1144.35 307.745 1144.11 307.016C1143.79 306.083 1143.79 305.125 1144.14 304.219C1144.46 303.318 1145.31 302.912 1146.27 303.057C1147.29 303.229 1148.02 303.755 1148.45 304.719C1148.69 305.214 1148.78 305.677 1148.57 306.203C1148.36 306.552 1148.25 306.99 1148.16 307.339Z" fill="white"/>
</g>
<mask id="mask14_5_1868" style="mask-type:luminance" maskUnits="userSpaceOnUse" x="1088" y="228" width="7" height="7">
<path d="M1088.22 228H1094.67V234.667H1088.22V228Z" fill="white"/>
</mask>
<g mask="url(#mask14_5_1868)">
<path d="M1093.79 231.958C1093.79 231.99 1093.79 232.224 1093.79 232.453C1093.76 232.891 1093.49 233.182 1093.2 233.448C1092.53 234.026 1091.69 234.26 1090.84 234.464C1090.64 234.521 1090.38 234.38 1090.2 234.26C1089.51 233.797 1089.24 233.068 1088.98 232.281C1088.63 231.172 1089.13 230.302 1089.68 229.427C1090.11 229.281 1090.55 229.021 1090.99 228.99C1091.45 228.958 1091.92 229.078 1092.39 229.193C1093.38 229.396 1093.93 230.214 1093.87 231.292C1093.84 231.438 1093.81 231.609 1093.79 231.958Z" fill="white"/>
</g>
<mask id="mask15_5_1868" style="mask-type:luminance" maskUnits="userSpaceOnUse" x="1142" y="264" width="8" height="6">
<path d="M1142.67 264H1149.19V269.333H1142.67V264Z" fill="white"/>
</mask>
<g mask="url(#mask15_5_1868)">
<path d="M1146.39 264.552C1146.77 264.641 1147.35 264.812 1147.9 264.958C1148.42 265.104 1148.57 265.516 1148.6 265.979C1148.63 266.125 1148.63 266.271 1148.63 266.417C1148.54 268.224 1148.25 268.802 1145.95 269.297C1145.4 269.417 1144.93 269.182 1144.58 268.745C1143.99 268.016 1143.85 267.146 1143.85 266.24C1143.85 265.573 1144.72 264.755 1145.48 264.641C1145.71 264.583 1145.95 264.583 1146.39 264.552Z" fill="white"/>
</g>
<path d="M1105.52 283.047C1105.58 282.552 1105.64 282.057 1105.72 281.62C1105.96 280.63 1106.89 280.016 1107.88 280.193C1108.35 280.281 1108.81 280.427 1109.19 280.687C1110.59 281.562 1110.82 283.307 1109.74 284.589C1109.6 284.766 1109.36 284.88 1109.16 285C1108.52 285.406 1107.82 285.437 1107.09 285.464C1106.36 285.495 1105.84 285.083 1105.7 284.443C1105.64 283.979 1105.58 283.484 1105.52 283.047Z" fill="white"/>
<path d="M1105.35 249.146C1105.44 248.911 1105.55 248.417 1105.76 248.01C1106.02 247.484 1106.51 247.193 1107.13 247.161C1108.64 247.078 1109.69 247.807 1110.44 249.057C1110.53 249.203 1110.62 249.375 1110.59 249.495C1110.44 250.021 1110.24 250.542 1110.04 251.036C1109.98 251.156 1109.8 251.271 1109.69 251.359C1109.08 251.734 1108.44 252.057 1107.71 252.172C1106.78 252.349 1106.22 252.057 1105.79 251.182C1105.46 250.516 1105.35 250.047 1105.35 249.146Z" fill="white"/>
<path d="M1110.59 305.531C1110.56 305.854 1110.56 306.172 1110.44 306.463C1110.33 306.724 1110.13 307.073 1109.89 307.193C1108.96 307.63 1107.94 307.891 1106.89 307.802C1106.36 307.776 1106.02 307.484 1105.76 307.047C1105.06 305.854 1105.38 304.484 1106.51 303.698C1106.63 303.609 1106.78 303.521 1106.92 303.463C1107.85 303.26 1108.79 303.172 1109.66 303.755C1110.3 304.161 1110.65 304.719 1110.59 305.531Z" fill="white"/>
<mask id="mask16_5_1868" style="mask-type:luminance" maskUnits="userSpaceOnUse" x="1088" y="210" width="7" height="8">
<path d="M1088.22 210.667H1094.67V217.333H1088.22V210.667Z" fill="white"/>
</mask>
<g mask="url(#mask16_5_1868)">
<path d="M1090.96 211.485C1092.01 211.458 1092.82 211.891 1093.49 212.651C1094.05 213.292 1094.05 214.427 1093.46 215.068C1092.8 215.797 1091.92 216.203 1090.99 216.464C1090.58 216.583 1090.17 216.438 1089.88 216.146C1088.66 214.891 1088.51 213.526 1089.44 212.011C1089.56 211.833 1089.82 211.719 1090.03 211.662C1090.32 211.542 1090.64 211.516 1090.96 211.485Z" fill="white"/>
</g>
<mask id="mask17_5_1868" style="mask-type:luminance" maskUnits="userSpaceOnUse" x="1122" y="337" width="9" height="7">
<path d="M1122.67 337.333H1130.67V343.917H1122.67V337.333Z" fill="white"/>
</mask>
<g mask="url(#mask17_5_1868)">
<path d="M1123.26 340.104C1123.35 339.812 1123.35 339.464 1123.52 339.26C1123.9 338.823 1124.34 338.417 1124.8 338.062C1124.95 337.948 1125.21 337.859 1125.42 337.891C1125.91 337.922 1126.46 337.948 1126.93 338.151C1127.89 338.531 1128.77 339.115 1129.55 339.781C1129.99 340.161 1130.1 340.63 1129.93 341.182C1129.81 341.531 1129.67 341.88 1129.58 342.229C1129.46 342.609 1129.23 342.87 1128.94 343.073C1128.59 343.339 1128.21 343.568 1127.83 343.802C1126.96 344.354 1126.37 344.354 1125.62 343.745C1124.74 343.047 1124.05 342.203 1123.55 341.182C1123.37 340.833 1123.35 340.453 1123.26 340.104Z" fill="white"/>
</g>
<mask id="mask18_5_1868" style="mask-type:luminance" maskUnits="userSpaceOnUse" x="1142" y="337" width="8" height="7">
<path d="M1142.67 337.333H1149.19V343.917H1142.67V337.333Z" fill="white"/>
</mask>
<g mask="url(#mask18_5_1868)">
<path d="M1143.47 340.51C1143.47 339.349 1144.35 338.416 1145.57 338.385C1146.91 338.354 1147.99 338.937 1148.8 339.989C1149.09 340.364 1149.07 340.802 1149.04 341.271C1148.98 341.88 1148.78 342.406 1148.19 342.724C1147.72 342.958 1147.32 343.25 1146.85 343.484C1146.01 343.89 1145.02 343.656 1144.46 342.927C1143.77 342.083 1143.47 341.297 1143.47 340.51Z" fill="white"/>
</g>
<mask id="mask19_5_1868" style="mask-type:luminance" maskUnits="userSpaceOnUse" x="1105" y="337" width="6" height="7">
<path d="M1105.33 337.333H1110.67V343.917H1105.33V337.333Z" fill="white"/>
</mask>
<g mask="url(#mask19_5_1868)">
<path d="M1107.53 337.802C1107.88 337.859 1108.2 337.891 1108.49 337.979C1108.72 338.036 1108.96 338.151 1109.14 338.297C1109.92 339.026 1110.42 339.99 1110.59 341.005C1110.91 342.87 1109.6 344.271 1107.68 344.24C1107.36 344.24 1107.04 344.062 1106.86 343.802C1106.19 342.698 1105.7 341.531 1105.41 340.276C1105.23 339.521 1105.61 338.88 1105.99 338.271C1106.08 338.151 1106.25 338.062 1106.4 338.036C1106.78 337.948 1107.15 337.891 1107.53 337.802Z" fill="white"/>
</g>
<mask id="mask20_5_1868" style="mask-type:luminance" maskUnits="userSpaceOnUse" x="1088" y="337" width="7" height="7">
<path d="M1088.22 337.333H1094.67V343.917H1088.22V337.333Z" fill="white"/>
</mask>
<g mask="url(#mask20_5_1868)">
<path d="M1090.96 338.531C1092.01 338.5 1092.82 338.937 1093.49 339.698C1094.05 340.338 1094.05 341.474 1093.46 342.114C1092.8 342.844 1091.92 343.25 1090.99 343.51C1090.58 343.63 1090.17 343.484 1089.88 343.193C1088.66 341.937 1088.51 340.568 1089.44 339.057C1089.56 338.88 1089.82 338.765 1090.03 338.708C1090.32 338.588 1090.64 338.588 1090.96 338.531Z" fill="white"/>
</g>
<mask id="mask21_5_1868" style="mask-type:luminance" maskUnits="userSpaceOnUse" x="1142" y="321" width="8" height="7">
<path d="M1142.67 321.333H1149.19V328H1142.67V321.333Z" fill="white"/>
</mask>
<g mask="url(#mask21_5_1868)">
<path d="M1143.97 325.25C1143.97 324.844 1143.97 324.698 1143.97 324.552C1143.94 323.62 1144.41 323.005 1145.14 322.542C1145.45 322.338 1145.83 322.281 1146.18 322.338C1147.32 322.51 1148.05 323.213 1148.42 324.26C1148.51 324.521 1148.51 324.87 1148.4 325.104C1147.72 326.531 1146.5 327.172 1144.96 326.937C1144.52 326.88 1144.11 326.5 1144.06 326.068C1144.03 325.745 1143.99 325.396 1143.97 325.25Z" fill="white"/>
</g>
<path d="M1107.68 229.516C1108.67 229.542 1109.57 229.719 1110.3 230.448C1110.53 230.677 1110.68 231 1110.59 231.318C1110.44 232.021 1110.13 232.661 1109.48 233.068C1108.81 233.505 1108.08 233.797 1107.3 233.943C1106.8 234.026 1106.36 233.854 1106.02 233.505C1105.35 232.807 1105.2 231.901 1105.61 231.089C1105.79 230.74 1106.02 230.417 1106.25 230.068C1106.48 229.719 1106.86 229.573 1107.27 229.542C1107.36 229.516 1107.53 229.516 1107.68 229.516Z" fill="white"/>
<path d="M1107.73 264.698C1108 264.755 1108.49 264.813 1108.93 264.99C1109.74 265.281 1110.21 265.891 1110.36 266.766C1110.47 267.406 1110.18 268.104 1109.66 268.427C1108.9 268.891 1108.08 269.214 1107.18 269.214C1106.43 269.214 1105.81 268.745 1105.64 267.958C1105.37 266.854 1105.7 265.922 1106.43 265.104C1106.74 264.787 1107.12 264.698 1107.73 264.698Z" fill="white"/>
<mask id="mask22_5_1868" style="mask-type:luminance" maskUnits="userSpaceOnUse" x="1088" y="192" width="7" height="7">
<path d="M1088.22 192H1094.67V198.667H1088.22V192Z" fill="white"/>
</mask>
<g mask="url(#mask22_5_1868)">
<path d="M1091.25 192.641C1091.98 192.698 1092.62 192.99 1093.2 193.427C1093.32 193.516 1093.44 193.661 1093.49 193.807C1093.93 194.708 1093.64 196.047 1092.82 196.573C1092.36 196.865 1091.83 197.099 1091.34 197.302C1090.93 197.474 1090.35 197.302 1090.03 196.953C1089.59 196.484 1089.24 195.964 1089.09 195.323C1088.89 194.474 1089.13 193.75 1089.71 193.135C1090.11 192.698 1090.67 192.641 1091.25 192.641Z" fill="white"/>
</g>
<mask id="mask23_5_1868" style="mask-type:luminance" maskUnits="userSpaceOnUse" x="1144" y="192" width="6" height="6">
<path d="M1144 192H1149.19V197.333H1144V192Z" fill="white"/>
</mask>
<g mask="url(#mask23_5_1868)">
<path d="M1146.27 197.068C1145.8 196.891 1145.22 196.719 1144.72 196.458C1144.14 196.167 1143.88 195.089 1144.2 194.474C1144.29 194.271 1144.41 194.099 1144.55 193.922C1145.57 192.583 1147.26 192.672 1148.22 194.099C1148.71 194.854 1148.54 195.932 1147.78 196.458C1147.55 196.63 1147.29 196.776 1147.03 196.891C1146.79 196.953 1146.56 196.979 1146.27 197.068Z" fill="white"/>
</g>
<path d="M1108.93 194.448C1108.93 194.474 1108.93 194.797 1108.84 195.115C1108.79 195.349 1108.7 195.583 1108.55 195.755C1108.03 196.37 1107.39 196.833 1106.66 197.182C1105.9 197.536 1105 197.156 1104.71 196.338C1104.3 195.26 1104.56 194.302 1105.26 193.458C1105.44 193.224 1105.76 193.078 1106.05 192.963C1106.57 192.755 1107.12 192.755 1107.68 192.818C1108.67 192.875 1108.96 193.281 1108.93 194.448Z" fill="white"/>
<mask id="mask24_5_1868" style="mask-type:luminance" maskUnits="userSpaceOnUse" x="1137" y="114" width="113" height="197">
<path d="M1137.33 114.667H1249.33V310.667H1137.33V114.667Z" fill="white"/>
</mask>
<g mask="url(#mask24_5_1868)">
<mask id="mask25_5_1868" style="mask-type:luminance" maskUnits="userSpaceOnUse" x="1081" y="115" width="224" height="195">
<path d="M1081.76 213.016L1248.1 115.344L1304.78 211.87L1138.44 309.547L1081.76 213.016Z" fill="white"/>
</mask>
<g mask="url(#mask25_5_1868)">
<mask id="mask26_5_1868" style="mask-type:luminance" maskUnits="userSpaceOnUse" x="1081" y="115" width="224" height="195">
<path d="M1081.76 213.016L1248.1 115.344L1304.78 211.87L1138.44 309.547L1081.76 213.016Z" fill="white"/>
</mask>
<g mask="url(#mask26_5_1868)">
<mask id="mask27_5_1868" style="mask-type:luminance" maskUnits="userSpaceOnUse" x="1081" y="115" width="224" height="195">
<path d="M1081.76 213.016L1248.1 115.344L1304.78 211.87L1138.44 309.547L1081.76 213.016Z" fill="white"/>
</mask>
<g mask="url(#mask27_5_1868)">
<path d="M1138.54 309.49L1248.01 115.396L1260.86 237.661L1138.54 309.49Z" fill="white"/>
</g>
</g>
</g>
</g>
<mask id="mask28_5_1868" style="mask-type:luminance" maskUnits="userSpaceOnUse" x="920" y="168" width="330" height="216">
<path d="M920.766 168.917H1249.33V383.896H920.766V168.917Z" fill="white"/>
</mask>
<g mask="url(#mask28_5_1868)">
<path d="M921.005 434.182L1377.89 168.917L1257.36 434.182H921.005Z" fill="#102C57"/>
</g>
<mask id="mask29_5_1868" style="mask-type:luminance" maskUnits="userSpaceOnUse" x="16" y="38" width="78" height="78">
<path d="M16.3229 38.4844H93.2812V115.443H16.3229V38.4844Z" fill="white"/>
</mask>
<g mask="url(#mask29_5_1868)">
<path d="M92.75 64.5833C92.8541 64.5833 92.9427 64.5469 93.0156 64.474C93.0885 64.401 93.125 64.3125 93.125 64.2083C93.125 64.1042 93.0885 64.0156 93.0156 63.9427C92.9427 63.8698 92.8541 63.8333 92.75 63.8333H80.4531V51.9115H92.75C92.8541 51.9115 92.9427 51.875 93.0156 51.7969C93.0885 51.724 93.125 51.6354 93.125 51.5313C93.125 51.4271 93.0885 51.3385 93.0156 51.2656C92.9427 51.1927 92.8541 51.1563 92.75 51.1563H80.4531V38.8594C80.4531 38.7552 80.4114 38.6667 80.3385 38.5938C80.2656 38.5208 80.177 38.4844 80.0729 38.4844C79.9687 38.4844 79.8802 38.5208 79.8073 38.5938C79.7343 38.6667 79.6979 38.7552 79.6979 38.8594V51.1563H67.776V38.8594C67.776 38.7552 67.7395 38.6667 67.6614 38.5938C67.5885 38.5208 67.5 38.4844 67.3958 38.4844C67.2916 38.4844 67.2031 38.5208 67.1302 38.5938C67.0573 38.6667 67.0208 38.7552 67.0208 38.8594V51.1563H55.0989V38.8594C55.0989 38.7552 55.0625 38.6667 54.9895 38.5938C54.9166 38.5208 54.8281 38.4844 54.7239 38.4844C54.6198 38.4844 54.5312 38.5208 54.4583 38.5938C54.3854 38.6667 54.3489 38.7552 54.3489 38.8594V51.1563H42.427V38.8594C42.427 38.7552 42.3906 38.6667 42.3177 38.5938C42.2395 38.5208 42.151 38.4844 42.0468 38.4844C41.9427 38.4844 41.8541 38.5208 41.7812 38.5938C41.7083 38.6667 41.6718 38.7552 41.6718 38.8594V51.1563H29.75V38.8594C29.75 38.7552 29.7135 38.6667 29.6406 38.5938C29.5677 38.5208 29.4791 38.4844 29.375 38.4844C29.2708 38.4844 29.1823 38.5208 29.1041 38.5938C29.0312 38.6667 28.9948 38.7552 28.9948 38.8594V51.1563H16.6979C16.5937 51.1563 16.5052 51.1927 16.4322 51.2656C16.3593 51.3385 16.3229 51.4271 16.3229 51.5313C16.3229 51.6354 16.3593 51.724 16.4322 51.7969C16.5052 51.875 16.5937 51.9115 16.6979 51.9115H28.9948V63.8333H16.6979C16.5937 63.8333 16.5052 63.8698 16.4322 63.9427C16.3593 64.0156 16.3229 64.1042 16.3229 64.2083C16.3229 64.3125 16.3593 64.401 16.4322 64.474C16.5052 64.5469 16.5937 64.5833 16.6979 64.5833H28.9948V76.5052H16.6979C16.5937 76.5052 16.5052 76.5417 16.4322 76.6146C16.3593 76.6927 16.3229 76.7813 16.3229 76.8854C16.3229 76.9896 16.3593 77.0781 16.4322 77.151C16.5052 77.224 16.5937 77.2604 16.6979 77.2604H28.9948V89.1823H16.6979C16.5937 89.1823 16.5052 89.2188 16.4322 89.2917C16.3593 89.3646 16.3229 89.4531 16.3229 89.5573C16.3229 89.6615 16.3593 89.75 16.4322 89.8229C16.5052 89.8958 16.5937 89.9323 16.6979 89.9323H28.9948V101.859H16.6979C16.5937 101.859 16.5052 101.896 16.4322 101.969C16.3593 102.042 16.3229 102.13 16.3229 102.234C16.3229 102.339 16.3593 102.427 16.4322 102.5C16.5052 102.573 16.5937 102.609 16.6979 102.609H28.9948V114.906C28.9948 115.01 29.0312 115.099 29.1041 115.172C29.1823 115.25 29.2708 115.286 29.375 115.286C29.4791 115.286 29.5677 115.25 29.6406 115.172C29.7135 115.099 29.75 115.01 29.75 114.906V102.609H41.6718V114.906C41.6718 115.01 41.7083 115.099 41.7812 115.172C41.8541 115.25 41.9427 115.286 42.0468 115.286C42.151 115.286 42.2395 115.25 42.3177 115.172C42.3906 115.099 42.427 115.01 42.427 114.906V102.609H54.3489V114.906C54.3489 115.01 54.3854 115.099 54.4583 115.172C54.5312 115.25 54.6198 115.286 54.7239 115.286C54.8281 115.286 54.9166 115.25 54.9895 115.172C55.0625 115.099 55.0989 115.01 55.0989 114.906V102.609H67.0208V114.906C67.0208 115.01 67.0573 115.099 67.1302 115.172C67.2031 115.25 67.2916 115.286 67.3958 115.286C67.5 115.286 67.5885 115.25 67.6614 115.172C67.7395 115.099 67.776 115.01 67.776 114.906V102.609H79.6979V114.906C79.6979 115.01 79.7343 115.099 79.8073 115.172C79.8802 115.25 79.9687 115.286 80.0729 115.286C80.177 115.286 80.2656 115.25 80.3385 115.172C80.4114 115.099 80.4531 115.01 80.4531 114.906V102.609H92.75C92.8541 102.609 92.9427 102.573 93.0156 102.5C93.0885 102.427 93.125 102.339 93.125 102.234C93.125 102.13 93.0885 102.042 93.0156 101.969C92.9427 101.896 92.8541 101.859 92.75 101.859H80.4531V89.9323H92.75C92.8541 89.9323 92.9427 89.8958 93.0156 89.8229C93.0885 89.75 93.125 89.6615 93.125 89.5573C93.125 89.4531 93.0885 89.3646 93.0156 89.2917C92.9427 89.2188 92.8541 89.1823 92.75 89.1823H80.4531V77.2604H92.75C92.8541 77.2604 92.9427 77.224 93.0156 77.151C93.0885 77.0781 93.125 76.9896 93.125 76.8854C93.125 76.7813 93.0885 76.6927 93.0156 76.6146C92.9427 76.5417 92.8541 76.5052 92.75 76.5052H80.4531V64.5833H92.75ZM79.6979 51.9115V63.8333H67.776V51.9115H79.6979ZM67.0208 51.9115V63.8333H55.0989V51.9115H67.0208ZM54.3489 77.2604V89.1823H42.427V77.2604H54.3489ZM42.427 76.5052V64.5833H54.3489V76.5052H42.427ZM55.0989 77.2604H67.0208V89.1823H55.0989V77.2604ZM55.0989 76.5052V64.5833H67.0208V76.5052H55.0989ZM54.3489 51.9115V63.8333H42.427V51.9115H54.3489ZM29.75 51.9115H41.6718V63.8333H29.75V51.9115ZM29.75 64.5833H41.6718V76.5052H29.75V64.5833ZM29.75 77.2604H41.6718V89.1823H29.75V77.2604ZM29.75 101.859V89.9323H41.6718V101.859H29.75ZM42.427 101.859V89.9323H54.3489V101.859H42.427ZM55.0989 101.859V89.9323H67.0208V101.859H55.0989ZM79.6979 101.859H67.776V89.9323H79.6979V101.859ZM79.6979 89.1823H67.776V77.2604H79.6979V89.1823ZM79.6979 76.5052H67.776V64.5833H79.6979V76.5052Z" fill="white"/>
</g>
<path d="M639.656 18.968L635.72 18.904C633.544 18.904 632.029 18.9787 631.176 19.128C631.133 20.5787 631.112 22.8187 631.112 25.848L636.584 25.816H637.128C639.176 25.816 640.2 25.9867 640.2 26.328C640.2 26.648 640.125 27.0107 639.976 27.416C639.827 27.8 639.656 28.024 639.464 28.088C639.272 28.152 638.867 28.184 638.248 28.184L631.176 28.152C631.155 28.7707 631.144 29.2613 631.144 29.624L631.112 32.216V34.008C631.112 35.416 631.144 36.184 631.208 36.312C631.336 36.568 633.32 36.696 637.16 36.696C638.483 36.696 639.432 36.664 640.008 36.6L641.352 36.344C641.672 36.344 641.832 36.4507 641.832 36.664C641.832 36.856 641.736 37.176 641.544 37.624C641.331 38.3493 641.181 38.744 641.096 38.808C640.861 38.936 639.155 39 635.976 39H630.12C628.968 39 628.296 38.9253 628.104 38.776C627.933 38.6053 627.848 37.2293 627.848 34.648L627.944 23.224L627.976 20.632L627.944 18.232C627.944 17.5067 628.008 17.08 628.136 16.952C628.307 16.76 628.925 16.664 629.992 16.664L634.504 16.6L638.728 16.632C639.731 16.632 640.285 16.696 640.392 16.824C640.499 16.9307 640.552 17.0373 640.552 17.144L640.424 17.912C640.403 18.0187 640.392 18.1467 640.392 18.296C640.392 18.424 640.381 18.52 640.36 18.584C640.36 18.648 640.339 18.712 640.296 18.776C640.232 18.904 640.019 18.968 639.656 18.968ZM647.19 25.112L648.566 25.144C648.587 25.1653 648.683 25.528 648.854 26.232C649.025 26.168 649.473 25.9867 650.198 25.688C651.67 25.112 652.822 24.824 653.654 24.824C655.041 24.824 656.15 25.3893 656.982 26.52L657.302 26.296C657.537 26.1467 657.686 26.0507 657.75 26.008L658.134 25.784C658.347 25.656 658.507 25.5707 658.614 25.528C658.721 25.4853 658.881 25.4107 659.094 25.304C659.329 25.1973 659.521 25.1227 659.67 25.08C659.841 25.0373 660.033 24.984 660.246 24.92C660.651 24.8347 661.11 24.792 661.622 24.792C663.862 24.792 665.291 25.8587 665.91 27.992C666.081 28.4613 666.187 29.592 666.23 31.384V37.336C666.23 38.0613 666.102 38.5307 665.846 38.744C665.611 38.936 665.153 39.032 664.47 39.032C663.809 39.032 663.403 38.9893 663.254 38.904C663.126 38.7973 663.062 38.552 663.062 38.168L663.158 36.248V32.408C663.158 32.3227 663.158 32.0453 663.158 31.576C663.158 31.1067 663.147 30.7013 663.126 30.36C663.126 30.0187 663.073 29.592 662.966 29.08C662.881 28.568 662.742 28.2053 662.55 27.992C662.017 27.3947 661.227 27.096 660.182 27.096C658.198 27.096 657.206 27.7467 657.206 29.048L657.302 31.96V36.312C657.302 37.2507 657.217 37.8693 657.046 38.168C656.961 38.3173 656.769 38.392 656.47 38.392C655.275 38.392 654.582 38.2427 654.39 37.944C654.241 37.7307 654.177 37.4 654.198 36.952C654.241 36.504 654.262 36.248 654.262 36.184L654.422 30.52C654.422 29.304 654.219 28.472 653.814 28.024C653.409 27.576 652.779 27.352 651.926 27.352C649.878 27.352 648.854 27.7467 648.854 28.536L648.918 31.16L648.854 36.696C648.854 36.824 648.854 37.0267 648.854 37.304C648.875 37.56 648.875 37.7307 648.854 37.816L648.822 38.2C648.801 38.3707 648.769 38.488 648.726 38.552C648.47 38.7867 648.257 38.9147 648.086 38.936C647.617 39 647.243 39.032 646.966 39.032C646.71 39.032 646.529 39.0213 646.422 39C646.337 38.9787 646.262 38.9467 646.198 38.904C646.134 38.84 646.081 38.7867 646.038 38.744C645.995 38.68 645.953 38.5947 645.91 38.488C645.889 38.36 645.867 38.2533 645.846 38.168C645.846 38.0613 645.846 37.912 645.846 37.72V36.088L645.974 29.432L646.038 26.776L646.102 26.136C646.102 25.88 646.155 25.6773 646.262 25.528C646.39 25.3573 646.486 25.2613 646.55 25.24C646.806 25.1547 647.019 25.112 647.19 25.112ZM674.335 30.68L674.271 34.936C674.271 35.9173 674.452 36.5787 674.815 36.92C675.178 37.2613 676.01 37.432 677.311 37.432C679.06 37.432 680.34 36.9413 681.151 35.96C681.962 34.9573 682.367 33.6453 682.367 32.024C682.367 30.3813 681.994 29.1227 681.247 28.248C680.522 27.352 679.53 26.904 678.271 26.904C677.567 26.904 676.756 27.0533 675.839 27.352C674.943 27.6293 674.442 27.896 674.335 28.152C674.292 28.216 674.271 28.3547 674.271 28.568L674.303 29.464C674.324 29.7627 674.335 30.168 674.335 30.68ZM674.399 38.872C674.335 40.0667 674.303 41.7947 674.303 44.056C674.346 44.632 674.367 45.2507 674.367 45.912C674.367 46.5947 674.292 47.0107 674.143 47.16C673.994 47.3307 673.226 47.416 671.839 47.416C671.519 47.416 671.306 47.2773 671.199 47C671.092 46.7227 671.05 46.3813 671.071 45.976C671.199 40.216 671.263 36.1413 671.263 33.752L671.199 27.16V26.744C671.199 26.552 671.199 26.424 671.199 26.36C671.22 26.296 671.231 26.2 671.231 26.072C671.252 25.9227 671.274 25.8267 671.295 25.784C671.316 25.72 671.338 25.6453 671.359 25.56C671.402 25.4533 671.444 25.3893 671.487 25.368C671.551 25.3253 671.626 25.2827 671.711 25.24C671.839 25.1547 672.234 25.112 672.895 25.112C673.578 25.112 673.951 25.1227 674.015 25.144C674.036 25.1867 674.058 25.3893 674.079 25.752C674.1 26.1147 674.132 26.3813 674.175 26.552C675.775 25.3787 677.514 24.792 679.391 24.792C681.29 24.792 682.772 25.4533 683.839 26.776C684.906 28.0987 685.439 29.5707 685.439 31.192C685.439 32.8133 685.183 34.2 684.671 35.352C684.18 36.504 683.338 37.464 682.143 38.232C680.948 39 679.487 39.384 677.759 39.384C676.778 39.384 675.658 39.2133 674.399 38.872ZM703.308 31.768C703.308 33.9653 702.551 35.7893 701.036 37.24C699.543 38.6693 697.74 39.384 695.628 39.384C693.538 39.384 691.799 38.7227 690.412 37.4C689.047 36.0773 688.364 34.296 688.364 32.056C688.364 29.7947 689.09 28.024 690.54 26.744C692.012 25.4427 694.028 24.792 696.588 24.792C698.018 24.792 699.436 25.24 700.844 26.136C701.57 26.6267 702.156 27.3627 702.604 28.344C703.074 29.304 703.308 30.4453 703.308 31.768ZM696.076 37.016C697.42 37.016 698.498 36.536 699.308 35.576C700.14 34.5947 700.556 33.3893 700.556 31.96C700.556 30.5307 700.194 29.3467 699.468 28.408C698.764 27.4693 697.719 27 696.332 27C694.967 27 693.815 27.4267 692.876 28.28C691.959 29.1333 691.5 30.3493 691.5 31.928C691.5 33.5067 691.927 34.7547 692.78 35.672C693.634 36.568 694.732 37.016 696.076 37.016ZM716.934 33.784C716.294 34.4667 715.868 34.9787 715.654 35.32C713.841 38.0507 712.721 39.416 712.294 39.416C712.188 39.416 711.974 39.2453 711.654 38.904C711.334 38.5627 711.089 38.2427 710.918 37.944C710.769 37.6453 709.948 35.9813 708.454 32.952C706.961 29.9013 706.044 28.0133 705.702 27.288C705.361 26.5413 705.19 26.0613 705.19 25.848C705.19 25.6133 705.468 25.3787 706.022 25.144C706.598 24.9093 706.961 24.792 707.11 24.792C707.26 24.792 707.345 24.792 707.366 24.792C707.665 24.8133 708.156 25.6347 708.838 27.256C709.478 28.6213 710.289 30.3813 711.27 32.536C712.273 34.6693 712.764 35.736 712.742 35.736L713.51 34.776C715.068 32.8347 715.857 31.8213 715.878 31.736C715.558 30.9253 715.334 30.4027 715.206 30.168C715.078 29.9333 714.876 29.496 714.598 28.856C714.321 28.1947 714.065 27.64 713.83 27.192C713.596 26.7227 713.478 26.4133 713.478 26.264C713.478 26.1147 713.574 25.976 713.766 25.848C713.958 25.72 714.15 25.6133 714.342 25.528C714.556 25.4213 714.79 25.3147 715.046 25.208C715.324 25.08 715.494 25.016 715.558 25.016C715.622 24.9947 715.718 25.048 715.846 25.176C715.974 25.304 716.102 25.4747 716.23 25.688C716.358 25.88 716.476 26.072 716.582 26.264C717.116 27.224 717.777 28.5893 718.566 30.36C719.377 32.1093 719.878 33.1867 720.07 33.592C720.433 34.5093 720.7 35.0533 720.87 35.224C721.041 35.224 721.404 34.6693 721.958 33.56C722.513 32.4293 722.94 31.544 723.238 30.904C723.558 30.2427 723.9 29.5173 724.262 28.728C724.625 27.9173 724.87 27.384 724.998 27.128C725.276 26.2747 725.638 25.6133 726.086 25.144C726.236 24.9733 726.385 24.8773 726.534 24.856C726.705 24.8133 726.929 24.856 727.206 24.984C727.505 25.112 727.676 25.2293 727.718 25.336C727.718 25.72 727.505 26.4453 727.078 27.512C725.841 30.2427 724.913 32.1627 724.294 33.272C723.676 34.3813 723.238 35.1707 722.982 35.64C722.748 36.1093 722.524 36.536 722.31 36.92C722.097 37.2827 721.873 37.6667 721.638 38.072C721.105 38.9467 720.668 39.384 720.326 39.384C720.156 39.384 719.612 38.5627 718.694 36.92C717.777 35.256 717.19 34.2107 716.934 33.784ZM741.596 31.096C741.596 31.096 739.154 31.1067 734.268 31.128C733.479 31.128 733.02 31.192 732.892 31.32C732.786 31.4693 732.732 31.7147 732.732 32.056C732.732 33.72 733.202 35 734.14 35.896C735.1 36.7707 736.188 37.208 737.404 37.208C738.62 37.208 739.57 37.048 740.252 36.728C740.274 36.728 740.487 36.5893 740.892 36.312C741.298 36.0347 741.575 35.896 741.724 35.896C741.895 35.896 742.023 35.96 742.108 36.088C742.194 36.216 742.236 36.344 742.236 36.472C742.236 37.2827 741.639 37.976 740.444 38.552C739.25 39.1067 737.852 39.384 736.252 39.384C734.674 39.384 733.159 38.744 731.708 37.464C730.279 36.184 729.564 34.456 729.564 32.28C729.564 30.104 730.236 28.312 731.58 26.904C732.946 25.496 734.77 24.792 737.052 24.792C738.716 24.792 740.06 25.2827 741.084 26.264C742.172 27.288 742.716 28.5253 742.716 29.976C742.716 30.7227 742.343 31.096 741.596 31.096ZM733.276 29.528C737.33 29.528 739.676 29.5067 740.316 29.464C740.252 28.6107 739.922 27.9067 739.324 27.352C738.748 26.7973 738.012 26.52 737.116 26.52C736.22 26.52 735.378 26.84 734.588 27.48C733.82 28.0987 733.383 28.7813 733.276 29.528ZM746.72 35.608L746.944 28.504C746.966 28.3333 746.976 28.0347 746.976 27.608C746.976 27.1813 746.987 26.8613 747.008 26.648C747.051 26.4347 747.104 26.1787 747.168 25.88C747.296 25.3467 747.606 25.08 748.096 25.08C749.163 25.08 749.696 25.3147 749.696 25.784C749.696 26.1467 749.707 26.4027 749.728 26.552C749.856 26.552 750.475 26.264 751.584 25.688C752.694 25.112 753.643 24.824 754.432 24.824C754.752 24.824 754.966 24.9093 755.072 25.08C755.2 25.2293 755.264 25.592 755.264 26.168C755.264 26.744 755.19 27.1813 755.04 27.48C754.912 27.5013 754.678 27.5333 754.336 27.576C754.016 27.6187 753.771 27.6507 753.6 27.672C753.451 27.6933 753.227 27.736 752.928 27.8C752.63 27.8427 752.395 27.8853 752.224 27.928C752.054 27.9493 751.84 27.992 751.584 28.056C751.35 28.0987 751.147 28.152 750.976 28.216C750.827 28.28 750.667 28.344 750.496 28.408C750.155 28.536 749.92 28.7067 749.792 28.92V31L749.856 36.44V36.92C749.856 37.0053 749.856 37.1867 749.856 37.464C749.856 37.72 749.846 37.9333 749.824 38.104C749.824 38.2747 749.782 38.4453 749.696 38.616C749.526 38.8933 749.078 39.032 748.352 39.032C747.648 39.032 747.232 38.9893 747.104 38.904C746.848 38.7333 746.72 37.6347 746.72 35.608ZM759.187 20.6C758.974 20.536 758.718 20.3227 758.419 19.96C758.142 19.576 758.003 19.224 758.003 18.904C758.025 18.5627 758.238 18.2213 758.643 17.88C759.07 17.5173 759.614 17.336 760.275 17.336C761.257 17.336 761.747 17.8053 761.747 18.744C761.747 19.4053 761.534 19.896 761.107 20.216C760.702 20.536 760.329 20.696 759.987 20.696C759.667 20.696 759.401 20.664 759.187 20.6ZM761.171 32.056L761.267 38.392C761.267 38.648 761.235 38.808 761.171 38.872C760.958 38.9787 760.51 39.032 759.827 39.032C759.145 39.032 758.718 38.9893 758.547 38.904C758.398 38.7973 758.323 38.4987 758.323 38.008L758.195 32.152C758.195 30.104 758.206 28.8027 758.227 28.248L758.323 26.36C758.323 25.7627 758.419 25.4107 758.611 25.304C758.803 25.1973 759.166 25.144 759.699 25.144C760.254 25.144 760.723 25.176 761.107 25.24C761.15 26.1787 761.171 26.9147 761.171 27.448V32.056ZM767.386 25.144L768.89 25.112C768.89 25.2187 768.954 25.4853 769.082 25.912C769.21 25.8693 769.573 25.7413 770.17 25.528C771.578 25.0373 772.741 24.792 773.658 24.792C774.597 24.792 775.418 24.9413 776.122 25.24C776.826 25.5173 777.37 25.88 777.754 26.328C778.138 26.7547 778.448 27.3307 778.682 28.056C779.024 29.2293 779.194 30.7867 779.194 32.728C779.194 32.728 779.141 34.552 779.034 38.2C779.034 38.6267 778.992 38.872 778.906 38.936C778.842 39 778.544 39.032 778.01 39.032C777.498 39.032 776.901 38.9893 776.218 38.904C776.154 38.392 776.122 37.496 776.122 36.216L776.154 32.12C776.154 30.4133 775.866 29.1333 775.29 28.28C774.714 27.4053 773.722 26.968 772.314 26.968C770.928 26.968 769.872 27.1707 769.146 27.576L769.21 31.864C769.232 33.784 769.242 35.2773 769.242 36.344L769.306 38.232C769.306 38.5733 769.221 38.7973 769.05 38.904C768.88 38.9893 768.517 39.032 767.962 39.032L766.298 38.968L766.17 32.28L766.298 27.416V26.264C766.298 25.5173 766.661 25.144 767.386 25.144ZM786.837 29.4C786.837 31.2773 787.68 32.216 789.365 32.216C790.176 32.216 790.794 31.9387 791.221 31.384C791.669 30.8293 791.893 30.0827 791.893 29.144C791.893 28.184 791.669 27.48 791.221 27.032C790.794 26.5627 790.197 26.328 789.429 26.328C788.661 26.328 788.032 26.6053 787.541 27.16C787.072 27.6933 786.837 28.44 786.837 29.4ZM788.821 40.184H788.181C787.797 40.184 787.221 40.0987 786.453 39.928C785.792 39.928 785.461 40.7493 785.461 42.392C785.461 44.4187 786.976 45.4853 790.005 45.592C791.392 45.592 792.49 45.3147 793.301 44.76C794.112 44.2267 794.517 43.4373 794.517 42.392C794.517 41.4107 794.016 40.792 793.013 40.536C792.16 40.3013 790.762 40.184 788.821 40.184ZM794.261 27.768C794.346 28.28 794.389 28.6107 794.389 28.76C794.389 30.1893 793.888 31.448 792.885 32.536C792.586 32.856 792.053 33.1867 791.285 33.528C790.517 33.8693 789.685 34.0613 788.789 34.104C787.957 34.104 787.434 34.1573 787.221 34.264C787.008 34.3493 786.826 34.4347 786.677 34.52C786.549 34.6053 786.453 34.712 786.389 34.84C786.218 35.1387 786.133 35.4587 786.133 35.8C786.133 36.12 786.197 36.3867 786.325 36.6C786.474 36.792 786.613 36.9413 786.741 37.048C786.89 37.1333 787.136 37.208 787.477 37.272C787.989 37.336 789.013 37.3893 790.549 37.432C792.085 37.4533 793.269 37.5493 794.101 37.72C796.469 38.2533 797.653 39.608 797.653 41.784C797.653 42.8933 797.237 43.8853 796.405 44.76C795.594 45.6347 794.592 46.2747 793.397 46.68C792.224 47.1067 791.114 47.32 790.069 47.32C789.045 47.32 788.17 47.256 787.445 47.128C786.72 47 785.994 46.7867 785.269 46.488C784.565 46.1893 784 45.7413 783.573 45.144C783.146 44.568 782.933 43.8853 782.933 43.096C782.933 42.3067 783.125 41.5707 783.509 40.888C783.893 40.2267 784.33 39.7253 784.821 39.384C783.882 38.5733 783.413 37.7093 783.413 36.792C783.413 36.3013 783.509 35.864 783.701 35.48C783.893 35.096 784.085 34.8187 784.277 34.648C784.49 34.4773 784.768 34.2853 785.109 34.072C785.472 33.8587 785.717 33.6987 785.845 33.592C785.44 33.272 785.12 32.9947 784.885 32.76C784.672 32.5253 784.426 32.12 784.149 31.544C783.893 30.9467 783.765 30.2853 783.765 29.56C783.765 28.1307 784.33 26.9787 785.461 26.104C786.613 25.2293 788.053 24.792 789.781 24.792C791.53 24.792 792.757 25.208 793.461 26.04C794.826 25.1013 795.989 24.632 796.949 24.632C797.248 24.632 797.472 24.8347 797.621 25.24C797.792 25.6453 797.877 26.0507 797.877 26.456C797.877 26.84 797.824 27.0853 797.717 27.192C797.61 27.2773 797.418 27.32 797.141 27.32C795.989 27.32 795.029 27.4693 794.261 27.768ZM819.54 31.096C819.54 31.096 817.097 31.1067 812.212 31.128C811.423 31.128 810.964 31.192 810.836 31.32C810.729 31.4693 810.676 31.7147 810.676 32.056C810.676 33.72 811.145 35 812.084 35.896C813.044 36.7707 814.132 37.208 815.348 37.208C816.564 37.208 817.513 37.048 818.196 36.728C818.217 36.728 818.431 36.5893 818.836 36.312C819.241 36.0347 819.519 35.896 819.668 35.896C819.839 35.896 819.967 35.96 820.052 36.088C820.137 36.216 820.18 36.344 820.18 36.472C820.18 37.2827 819.583 37.976 818.388 38.552C817.193 39.1067 815.796 39.384 814.196 39.384C812.617 39.384 811.103 38.744 809.652 37.464C808.223 36.184 807.508 34.456 807.508 32.28C807.508 30.104 808.18 28.312 809.524 26.904C810.889 25.496 812.713 24.792 814.996 24.792C816.66 24.792 818.004 25.2827 819.028 26.264C820.116 27.288 820.66 28.5253 820.66 29.976C820.66 30.7227 820.287 31.096 819.54 31.096ZM811.22 29.528C815.273 29.528 817.62 29.5067 818.26 29.464C818.196 28.6107 817.865 27.9067 817.268 27.352C816.692 26.7973 815.956 26.52 815.06 26.52C814.164 26.52 813.321 26.84 812.532 27.48C811.764 28.0987 811.327 28.7813 811.22 29.528ZM837.88 18.04L837.912 30.808V37.304C837.912 37.496 837.901 37.624 837.88 37.688C837.88 37.752 837.869 37.8587 837.848 38.008C837.848 38.1573 837.837 38.264 837.816 38.328C837.731 38.584 837.656 38.7333 837.592 38.776C837.549 38.8187 837.496 38.8613 837.432 38.904C837.283 38.9893 836.931 39.032 836.376 39.032C835.821 39.032 835.448 39 835.256 38.936C835.213 38.8293 835.181 38.6373 835.16 38.36C835.139 38.0827 835.117 37.9013 835.096 37.816C834.648 38.136 833.923 38.4773 832.92 38.84C831.939 39.2027 831.053 39.384 830.264 39.384C828.28 39.384 826.669 38.712 825.432 37.368C824.216 36.024 823.608 34.36 823.608 32.376C823.608 29.624 824.803 27.5013 827.192 26.008C828.365 25.1973 829.859 24.792 831.672 24.792C832.163 24.792 833.251 25.016 834.936 25.464L834.968 24.056V22.36C834.968 19.9707 834.979 18.5733 835 18.168C835.043 17.7627 835.064 17.368 835.064 16.984C835.064 16.6 835.075 16.3547 835.096 16.248C835.117 16.12 835.171 15.9707 835.256 15.8C835.405 15.544 835.747 15.416 836.28 15.416C836.813 15.416 837.165 15.4587 837.336 15.544C837.528 15.6293 837.667 15.7893 837.752 16.024C837.837 16.344 837.88 16.7387 837.88 17.208V18.04ZM826.776 31.672C826.776 33.4 827.224 34.7547 828.12 35.736C829.016 36.696 830.232 37.176 831.768 37.176C832.536 37.176 833.176 37.1013 833.688 36.952C834.563 36.6747 835 36.2907 835 35.8V29.88C835 28.472 834.936 27.6933 834.808 27.544C834.68 27.3307 834.285 27.1707 833.624 27.064C832.984 26.936 832.344 26.872 831.704 26.872C830.253 26.872 829.08 27.32 828.184 28.216C827.288 29.112 826.819 30.264 826.776 31.672ZM852.52 35.384L852.68 29.56V27.896C852.68 27 852.744 26.328 852.872 25.88C853.021 25.4107 853.32 25.176 853.768 25.176C854.514 25.176 855.048 25.2293 855.368 25.336C855.496 25.5067 855.56 26.072 855.56 27.032L855.656 35.128L855.784 37.944C855.784 38.6267 855.698 38.9787 855.528 39C855.08 39.064 854.664 39.096 854.28 39.096C853.917 39.096 853.661 39.064 853.512 39C853.384 38.9147 853.298 38.808 853.256 38.68C853.213 38.5307 853.181 38.3813 853.16 38.232C853.138 38.0827 853.117 37.9333 853.096 37.784C853.074 37.4427 853.021 37.2933 852.936 37.336C852.68 37.3147 852.168 37.6347 851.4 38.296C851.101 38.5733 850.632 38.8187 849.992 39.032C849.352 39.2667 848.573 39.384 847.656 39.384C846.738 39.384 845.917 39.16 845.192 38.712C844.488 38.264 843.965 37.656 843.624 36.888C843.026 35.48 842.728 33.9013 842.728 32.152L842.792 27.064L842.824 26.488C842.824 26.0187 842.92 25.688 843.112 25.496C843.304 25.2827 843.698 25.176 844.296 25.176C844.893 25.176 845.266 25.2293 845.416 25.336C845.586 25.4213 845.672 25.656 845.672 26.04L845.608 30.712C845.608 33.1653 845.864 34.7973 846.376 35.608C846.61 35.9707 846.952 36.28 847.4 36.536C847.869 36.792 848.424 36.92 849.064 36.92C849.704 36.92 850.44 36.792 851.272 36.536C852.104 36.28 852.52 35.896 852.52 35.384ZM871.745 36.792C872.108 36.792 872.289 37.048 872.289 37.56C872.289 38.776 870.711 39.384 867.553 39.384C866.209 39.384 865.015 39.1707 863.969 38.744C862.924 38.3173 862.113 37.7627 861.537 37.08C860.343 35.672 859.745 34.104 859.745 32.376C859.745 30.1573 860.577 28.3653 862.241 27C863.905 25.6133 865.975 24.92 868.449 24.92C870.924 24.92 872.161 25.272 872.161 25.976C872.161 26.4667 872.076 26.744 871.905 26.808C871.735 26.872 871.607 26.904 871.521 26.904H870.945C868.407 26.904 866.433 27.2773 865.025 28.024C863.617 28.7493 862.913 30.008 862.913 31.8C862.913 33.592 863.447 34.9573 864.513 35.896C865.601 36.8133 867.116 37.272 869.057 37.272C869.505 37.272 870.017 37.1973 870.593 37.048C871.169 36.8773 871.553 36.792 871.745 36.792ZM884.51 39.032C883.87 39.032 883.571 38.68 883.614 37.976C883.614 37.7413 883.582 37.624 883.518 37.624C883.347 37.688 883.006 37.8693 882.494 38.168C879.955 39.7253 877.726 39.8213 875.806 38.456C874.931 37.8373 874.493 36.984 874.493 35.896C874.493 34.2533 875.251 33.0587 876.766 32.312C878.302 31.5653 880.2 31.192 882.462 31.192C882.867 31.192 883.166 31.2027 883.358 31.224C883.358 30.8613 883.368 30.6053 883.39 30.456C883.39 29.24 883.048 28.3333 882.366 27.736C881.704 27.1173 880.776 26.808 879.582 26.808C879.006 26.808 878.387 26.8933 877.726 27.064C877.064 27.2347 876.638 27.32 876.446 27.32C876.254 27.32 876.094 27.2027 875.966 26.968C875.859 26.7333 875.806 26.424 875.806 26.04C875.806 25.656 876.275 25.3573 877.214 25.144C878.174 24.9093 879.091 24.792 879.966 24.792C882.035 24.792 883.603 25.336 884.67 26.424C885.758 27.512 886.302 29.1013 886.302 31.192V37.784C886.302 38.36 886.195 38.712 885.982 38.84C885.768 38.968 885.278 39.032 884.51 39.032ZM883.326 35.672C883.368 35.0747 883.39 34.4347 883.39 33.752C883.39 33.0693 883.379 32.6853 883.358 32.6C880.414 32.8773 878.622 33.4107 877.982 34.2C877.64 34.6053 877.47 35.0747 877.47 35.608C877.47 36.7387 878.312 37.304 879.998 37.304C880.851 37.304 881.608 37.112 882.27 36.728C882.952 36.3227 883.304 35.9707 883.326 35.672ZM894.746 29.752L894.682 34.36C894.682 35.2347 894.832 35.9067 895.13 36.376C895.429 36.824 895.93 37.048 896.634 37.048C897.338 37.048 897.936 36.984 898.426 36.856C899.344 36.6 899.802 36.728 899.802 37.24C899.802 38.6693 898.48 39.384 895.834 39.384C894.341 39.384 893.178 38.712 892.346 37.368C891.941 36.5147 891.738 35.5013 891.738 34.328L891.802 30.616L891.866 27.928C891.866 27.6293 891.824 27.448 891.738 27.384C891.653 27.2987 891.493 27.256 891.258 27.256L890.01 27.352C889.477 27.352 889.21 27.1813 889.21 26.84C889.21 26.2427 889.274 25.8267 889.402 25.592C889.552 25.336 889.818 25.208 890.202 25.208L891.45 25.304C891.749 25.304 891.898 24.9413 891.898 24.216C891.898 24.1307 891.898 24.0773 891.898 24.056V22.232C891.898 21.6773 891.909 21.3573 891.93 21.272C892.186 21.144 893.029 21.08 894.458 21.08C894.842 21.08 895.034 21.2827 895.034 21.688L894.938 25.208C895.194 25.2293 895.61 25.24 896.186 25.24L898.746 25.048C899.088 25.048 899.258 25.2507 899.258 25.656C899.258 26.8293 898.682 27.416 897.53 27.416L895.45 27.288C895.109 27.288 894.896 27.3093 894.81 27.352C894.768 27.736 894.746 28.536 894.746 29.752ZM904.062 20.6C903.849 20.536 903.593 20.3227 903.294 19.96C903.017 19.576 902.878 19.224 902.878 18.904C902.9 18.5627 903.113 18.2213 903.518 17.88C903.945 17.5173 904.489 17.336 905.15 17.336C906.132 17.336 906.622 17.8053 906.622 18.744C906.622 19.4053 906.409 19.896 905.982 20.216C905.577 20.536 905.204 20.696 904.862 20.696C904.542 20.696 904.276 20.664 904.062 20.6ZM906.046 32.056L906.142 38.392C906.142 38.648 906.11 38.808 906.046 38.872C905.833 38.9787 905.385 39.032 904.702 39.032C904.02 39.032 903.593 38.9893 903.422 38.904C903.273 38.7973 903.198 38.4987 903.198 38.008L903.07 32.152C903.07 30.104 903.081 28.8027 903.102 28.248L903.198 26.36C903.198 25.7627 903.294 25.4107 903.486 25.304C903.678 25.1973 904.041 25.144 904.574 25.144C905.129 25.144 905.598 25.176 905.982 25.24C906.025 26.1787 906.046 26.9147 906.046 27.448V32.056ZM924.933 31.768C924.933 33.9653 924.176 35.7893 922.661 37.24C921.168 38.6693 919.365 39.384 917.253 39.384C915.163 39.384 913.424 38.7227 912.037 37.4C910.672 36.0773 909.989 34.296 909.989 32.056C909.989 29.7947 910.715 28.024 912.165 26.744C913.637 25.4427 915.653 24.792 918.213 24.792C919.643 24.792 921.061 25.24 922.469 26.136C923.195 26.6267 923.781 27.3627 924.229 28.344C924.699 29.304 924.933 30.4453 924.933 31.768ZM917.701 37.016C919.045 37.016 920.123 36.536 920.933 35.576C921.765 34.5947 922.181 33.3893 922.181 31.96C922.181 30.5307 921.819 29.3467 921.093 28.408C920.389 27.4693 919.344 27 917.957 27C916.592 27 915.44 27.4267 914.501 28.28C913.584 29.1333 913.125 30.3493 913.125 31.928C913.125 33.5067 913.552 34.7547 914.405 35.672C915.259 36.568 916.357 37.016 917.701 37.016ZM930.111 25.144L931.615 25.112C931.615 25.2187 931.679 25.4853 931.807 25.912C931.935 25.8693 932.298 25.7413 932.895 25.528C934.303 25.0373 935.466 24.792 936.383 24.792C937.322 24.792 938.143 24.9413 938.847 25.24C939.551 25.5173 940.095 25.88 940.479 26.328C940.863 26.7547 941.173 27.3307 941.407 28.056C941.749 29.2293 941.919 30.7867 941.919 32.728C941.919 32.728 941.866 34.552 941.759 38.2C941.759 38.6267 941.717 38.872 941.631 38.936C941.567 39 941.269 39.032 940.735 39.032C940.223 39.032 939.626 38.9893 938.943 38.904C938.879 38.392 938.847 37.496 938.847 36.216L938.879 32.12C938.879 30.4133 938.591 29.1333 938.015 28.28C937.439 27.4053 936.447 26.968 935.039 26.968C933.653 26.968 932.597 27.1707 931.871 27.576L931.935 31.864C931.957 33.784 931.967 35.2773 931.967 36.344L932.031 38.232C932.031 38.5733 931.946 38.7973 931.775 38.904C931.605 38.9893 931.242 39.032 930.687 39.032L929.023 38.968L928.895 32.28L929.023 27.416V26.264C929.023 25.5173 929.386 25.144 930.111 25.144ZM948.826 44.76C948.378 44.76 948.005 44.6427 947.706 44.408C947.429 44.1733 947.29 43.928 947.29 43.672C947.29 43.6293 947.567 43.2347 948.122 42.488C948.698 41.7413 948.986 41.144 948.986 40.696C948.986 40.248 948.847 39.9173 948.57 39.704C948.293 39.4907 947.994 39.32 947.674 39.192C947.354 39.0853 947.055 38.8613 946.778 38.52C946.501 38.1787 946.362 37.72 946.362 37.144C946.362 36.5467 946.597 36.0133 947.066 35.544C947.557 35.0747 948.186 34.84 948.954 34.84C949.722 34.84 950.373 35.1387 950.906 35.736C951.439 36.312 951.706 37.1227 951.706 38.168C951.706 39.192 951.482 40.248 951.034 41.336C950.607 42.4453 950.17 43.288 949.722 43.864C949.274 44.4613 948.975 44.76 948.826 44.76ZM976.669 18.968L972.733 18.904C970.557 18.904 969.042 18.9787 968.189 19.128C968.146 20.5787 968.125 22.8187 968.125 25.848L973.597 25.816H974.141C976.189 25.816 977.213 25.9867 977.213 26.328C977.213 26.648 977.138 27.0107 976.989 27.416C976.839 27.8 976.669 28.024 976.477 28.088C976.285 28.152 975.879 28.184 975.261 28.184L968.189 28.152C968.167 28.7707 968.157 29.2613 968.157 29.624L968.125 32.216V34.008C968.125 35.416 968.157 36.184 968.221 36.312C968.349 36.568 970.333 36.696 974.173 36.696C975.495 36.696 976.445 36.664 977.021 36.6L978.365 36.344C978.685 36.344 978.845 36.4507 978.845 36.664C978.845 36.856 978.749 37.176 978.557 37.624C978.343 38.3493 978.194 38.744 978.109 38.808C977.874 38.936 976.167 39 972.989 39H967.133C965.981 39 965.309 38.9253 965.117 38.776C964.946 38.6053 964.861 37.2293 964.861 34.648L964.957 23.224L964.989 20.632L964.957 18.232C964.957 17.5067 965.021 17.08 965.149 16.952C965.319 16.76 965.938 16.664 967.005 16.664L971.517 16.6L975.741 16.632C976.743 16.632 977.298 16.696 977.405 16.824C977.511 16.9307 977.565 17.0373 977.565 17.144L977.437 17.912C977.415 18.0187 977.405 18.1467 977.405 18.296C977.405 18.424 977.394 18.52 977.373 18.584C977.373 18.648 977.351 18.712 977.309 18.776C977.245 18.904 977.031 18.968 976.669 18.968ZM984.202 25.112L985.578 25.144C985.6 25.1653 985.696 25.528 985.866 26.232C986.037 26.168 986.485 25.9867 987.21 25.688C988.682 25.112 989.834 24.824 990.666 24.824C992.053 24.824 993.162 25.3893 993.994 26.52L994.314 26.296C994.549 26.1467 994.698 26.0507 994.762 26.008L995.146 25.784C995.36 25.656 995.52 25.5707 995.626 25.528C995.733 25.4853 995.893 25.4107 996.106 25.304C996.341 25.1973 996.533 25.1227 996.682 25.08C996.853 25.0373 997.045 24.984 997.258 24.92C997.664 24.8347 998.122 24.792 998.634 24.792C1000.87 24.792 1002.3 25.8587 1002.92 27.992C1003.09 28.4613 1003.2 29.592 1003.24 31.384V37.336C1003.24 38.0613 1003.11 38.5307 1002.86 38.744C1002.62 38.936 1002.17 39.032 1001.48 39.032C1000.82 39.032 1000.42 38.9893 1000.27 38.904C1000.14 38.7973 1000.07 38.552 1000.07 38.168L1000.17 36.248V32.408C1000.17 32.3227 1000.17 32.0453 1000.17 31.576C1000.17 31.1067 1000.16 30.7013 1000.14 30.36C1000.14 30.0187 1000.09 29.592 999.978 29.08C999.893 28.568 999.754 28.2053 999.562 27.992C999.029 27.3947 998.24 27.096 997.194 27.096C995.21 27.096 994.218 27.7467 994.218 29.048L994.314 31.96V36.312C994.314 37.2507 994.229 37.8693 994.058 38.168C993.973 38.3173 993.781 38.392 993.482 38.392C992.288 38.392 991.594 38.2427 991.402 37.944C991.253 37.7307 991.189 37.4 991.21 36.952C991.253 36.504 991.274 36.248 991.274 36.184L991.434 30.52C991.434 29.304 991.232 28.472 990.826 28.024C990.421 27.576 989.792 27.352 988.938 27.352C986.89 27.352 985.866 27.7467 985.866 28.536L985.93 31.16L985.866 36.696C985.866 36.824 985.866 37.0267 985.866 37.304C985.888 37.56 985.888 37.7307 985.866 37.816L985.834 38.2C985.813 38.3707 985.781 38.488 985.738 38.552C985.482 38.7867 985.269 38.9147 985.098 38.936C984.629 39 984.256 39.032 983.978 39.032C983.722 39.032 983.541 39.0213 983.434 39C983.349 38.9787 983.274 38.9467 983.21 38.904C983.146 38.84 983.093 38.7867 983.05 38.744C983.008 38.68 982.965 38.5947 982.922 38.488C982.901 38.36 982.88 38.2533 982.858 38.168C982.858 38.0613 982.858 37.912 982.858 37.72V36.088L982.986 29.432L983.05 26.776L983.114 26.136C983.114 25.88 983.168 25.6773 983.274 25.528C983.402 25.3573 983.498 25.2613 983.562 25.24C983.818 25.1547 984.032 25.112 984.202 25.112ZM1011.35 30.68L1011.28 34.936C1011.28 35.9173 1011.46 36.5787 1011.83 36.92C1012.19 37.2613 1013.02 37.432 1014.32 37.432C1016.07 37.432 1017.35 36.9413 1018.16 35.96C1018.97 34.9573 1019.38 33.6453 1019.38 32.024C1019.38 30.3813 1019.01 29.1227 1018.26 28.248C1017.53 27.352 1016.54 26.904 1015.28 26.904C1014.58 26.904 1013.77 27.0533 1012.85 27.352C1011.96 27.6293 1011.45 27.896 1011.35 28.152C1011.3 28.216 1011.28 28.3547 1011.28 28.568L1011.32 29.464C1011.34 29.7627 1011.35 30.168 1011.35 30.68ZM1011.41 38.872C1011.35 40.0667 1011.32 41.7947 1011.32 44.056C1011.36 44.632 1011.38 45.2507 1011.38 45.912C1011.38 46.5947 1011.3 47.0107 1011.16 47.16C1011.01 47.3307 1010.24 47.416 1008.85 47.416C1008.53 47.416 1008.32 47.2773 1008.21 47C1008.1 46.7227 1008.06 46.3813 1008.08 45.976C1008.21 40.216 1008.28 36.1413 1008.28 33.752L1008.21 27.16V26.744C1008.21 26.552 1008.21 26.424 1008.21 26.36C1008.23 26.296 1008.24 26.2 1008.24 26.072C1008.26 25.9227 1008.29 25.8267 1008.31 25.784C1008.33 25.72 1008.35 25.6453 1008.37 25.56C1008.41 25.4533 1008.46 25.3893 1008.5 25.368C1008.56 25.3253 1008.64 25.2827 1008.72 25.24C1008.85 25.1547 1009.25 25.112 1009.91 25.112C1010.59 25.112 1010.96 25.1227 1011.03 25.144C1011.05 25.1867 1011.07 25.3893 1011.09 25.752C1011.11 26.1147 1011.14 26.3813 1011.19 26.552C1012.79 25.3787 1014.53 24.792 1016.4 24.792C1018.3 24.792 1019.78 25.4533 1020.85 26.776C1021.92 28.0987 1022.45 29.5707 1022.45 31.192C1022.45 32.8133 1022.2 34.2 1021.68 35.352C1021.19 36.504 1020.35 37.464 1019.16 38.232C1017.96 39 1016.5 39.384 1014.77 39.384C1013.79 39.384 1012.67 39.2133 1011.41 38.872ZM1040.32 31.768C1040.32 33.9653 1039.56 35.7893 1038.05 37.24C1036.56 38.6693 1034.75 39.384 1032.64 39.384C1030.55 39.384 1028.81 38.7227 1027.42 37.4C1026.06 36.0773 1025.38 34.296 1025.38 32.056C1025.38 29.7947 1026.1 28.024 1027.55 26.744C1029.02 25.4427 1031.04 24.792 1033.6 24.792C1035.03 24.792 1036.45 25.24 1037.86 26.136C1038.58 26.6267 1039.17 27.3627 1039.62 28.344C1040.09 29.304 1040.32 30.4453 1040.32 31.768ZM1033.09 37.016C1034.43 37.016 1035.51 36.536 1036.32 35.576C1037.15 34.5947 1037.57 33.3893 1037.57 31.96C1037.57 30.5307 1037.21 29.3467 1036.48 28.408C1035.78 27.4693 1034.73 27 1033.34 27C1031.98 27 1030.83 27.4267 1029.89 28.28C1028.97 29.1333 1028.51 30.3493 1028.51 31.928C1028.51 33.5067 1028.94 34.7547 1029.79 35.672C1030.65 36.568 1031.74 37.016 1033.09 37.016ZM1053.95 33.784C1053.31 34.4667 1052.88 34.9787 1052.67 35.32C1050.85 38.0507 1049.73 39.416 1049.31 39.416C1049.2 39.416 1048.99 39.2453 1048.67 38.904C1048.35 38.5627 1048.1 38.2427 1047.93 37.944C1047.78 37.6453 1046.96 35.9813 1045.47 32.952C1043.97 29.9013 1043.06 28.0133 1042.71 27.288C1042.37 26.5413 1042.2 26.0613 1042.2 25.848C1042.2 25.6133 1042.48 25.3787 1043.03 25.144C1043.61 24.9093 1043.97 24.792 1044.12 24.792C1044.27 24.792 1044.36 24.792 1044.38 24.792C1044.68 24.8133 1045.17 25.6347 1045.85 27.256C1046.49 28.6213 1047.3 30.3813 1048.28 32.536C1049.29 34.6693 1049.78 35.736 1049.75 35.736L1050.52 34.776C1052.08 32.8347 1052.87 31.8213 1052.89 31.736C1052.57 30.9253 1052.35 30.4027 1052.22 30.168C1052.09 29.9333 1051.89 29.496 1051.61 28.856C1051.33 28.1947 1051.08 27.64 1050.84 27.192C1050.61 26.7227 1050.49 26.4133 1050.49 26.264C1050.49 26.1147 1050.59 25.976 1050.78 25.848C1050.97 25.72 1051.16 25.6133 1051.35 25.528C1051.57 25.4213 1051.8 25.3147 1052.06 25.208C1052.34 25.08 1052.51 25.016 1052.57 25.016C1052.63 24.9947 1052.73 25.048 1052.86 25.176C1052.99 25.304 1053.11 25.4747 1053.24 25.688C1053.37 25.88 1053.49 26.072 1053.59 26.264C1054.13 27.224 1054.79 28.5893 1055.58 30.36C1056.39 32.1093 1056.89 33.1867 1057.08 33.592C1057.45 34.5093 1057.71 35.0533 1057.88 35.224C1058.05 35.224 1058.42 34.6693 1058.97 33.56C1059.53 32.4293 1059.95 31.544 1060.25 30.904C1060.57 30.2427 1060.91 29.5173 1061.27 28.728C1061.64 27.9173 1061.88 27.384 1062.01 27.128C1062.29 26.2747 1062.65 25.6133 1063.1 25.144C1063.25 24.9733 1063.4 24.8773 1063.55 24.856C1063.72 24.8133 1063.94 24.856 1064.22 24.984C1064.52 25.112 1064.69 25.2293 1064.73 25.336C1064.73 25.72 1064.52 26.4453 1064.09 27.512C1062.85 30.2427 1061.93 32.1627 1061.31 33.272C1060.69 34.3813 1060.25 35.1707 1059.99 35.64C1059.76 36.1093 1059.54 36.536 1059.32 36.92C1059.11 37.2827 1058.89 37.6667 1058.65 38.072C1058.12 38.9467 1057.68 39.384 1057.34 39.384C1057.17 39.384 1056.62 38.5627 1055.71 36.92C1054.79 35.256 1054.2 34.2107 1053.95 33.784ZM1078.61 31.096C1078.61 31.096 1076.17 31.1067 1071.28 31.128C1070.49 31.128 1070.03 31.192 1069.9 31.32C1069.8 31.4693 1069.74 31.7147 1069.74 32.056C1069.74 33.72 1070.21 35 1071.15 35.896C1072.11 36.7707 1073.2 37.208 1074.42 37.208C1075.63 37.208 1076.58 37.048 1077.26 36.728C1077.29 36.728 1077.5 36.5893 1077.9 36.312C1078.31 36.0347 1078.59 35.896 1078.74 35.896C1078.91 35.896 1079.04 35.96 1079.12 36.088C1079.21 36.216 1079.25 36.344 1079.25 36.472C1079.25 37.2827 1078.65 37.976 1077.46 38.552C1076.26 39.1067 1074.86 39.384 1073.26 39.384C1071.69 39.384 1070.17 38.744 1068.72 37.464C1067.29 36.184 1066.58 34.456 1066.58 32.28C1066.58 30.104 1067.25 28.312 1068.59 26.904C1069.96 25.496 1071.78 24.792 1074.06 24.792C1075.73 24.792 1077.07 25.2827 1078.1 26.264C1079.18 27.288 1079.73 28.5253 1079.73 29.976C1079.73 30.7227 1079.36 31.096 1078.61 31.096ZM1070.29 29.528C1074.34 29.528 1076.69 29.5067 1077.33 29.464C1077.26 28.6107 1076.93 27.9067 1076.34 27.352C1075.76 26.7973 1075.02 26.52 1074.13 26.52C1073.23 26.52 1072.39 26.84 1071.6 27.48C1070.83 28.0987 1070.4 28.7813 1070.29 29.528ZM1083.73 35.608L1083.96 28.504C1083.98 28.3333 1083.99 28.0347 1083.99 27.608C1083.99 27.1813 1084 26.8613 1084.02 26.648C1084.06 26.4347 1084.12 26.1787 1084.18 25.88C1084.31 25.3467 1084.62 25.08 1085.11 25.08C1086.18 25.08 1086.71 25.3147 1086.71 25.784C1086.71 26.1467 1086.72 26.4027 1086.74 26.552C1086.87 26.552 1087.49 26.264 1088.6 25.688C1089.71 25.112 1090.66 24.824 1091.44 24.824C1091.76 24.824 1091.98 24.9093 1092.08 25.08C1092.21 25.2293 1092.28 25.592 1092.28 26.168C1092.28 26.744 1092.2 27.1813 1092.05 27.48C1091.92 27.5013 1091.69 27.5333 1091.35 27.576C1091.03 27.6187 1090.78 27.6507 1090.61 27.672C1090.46 27.6933 1090.24 27.736 1089.94 27.8C1089.64 27.8427 1089.41 27.8853 1089.24 27.928C1089.07 27.9493 1088.85 27.992 1088.6 28.056C1088.36 28.0987 1088.16 28.152 1087.99 28.216C1087.84 28.28 1087.68 28.344 1087.51 28.408C1087.17 28.536 1086.93 28.7067 1086.8 28.92V31L1086.87 36.44V36.92C1086.87 37.0053 1086.87 37.1867 1086.87 37.464C1086.87 37.72 1086.86 37.9333 1086.84 38.104C1086.84 38.2747 1086.79 38.4453 1086.71 38.616C1086.54 38.8933 1086.09 39.032 1085.36 39.032C1084.66 39.032 1084.24 38.9893 1084.12 38.904C1083.86 38.7333 1083.73 37.6347 1083.73 35.608ZM1096.2 20.6C1095.99 20.536 1095.73 20.3227 1095.43 19.96C1095.15 19.576 1095.02 19.224 1095.02 18.904C1095.04 18.5627 1095.25 18.2213 1095.66 17.88C1096.08 17.5173 1096.63 17.336 1097.29 17.336C1098.27 17.336 1098.76 17.8053 1098.76 18.744C1098.76 19.4053 1098.55 19.896 1098.12 20.216C1097.71 20.536 1097.34 20.696 1097 20.696C1096.68 20.696 1096.41 20.664 1096.2 20.6ZM1098.18 32.056L1098.28 38.392C1098.28 38.648 1098.25 38.808 1098.18 38.872C1097.97 38.9787 1097.52 39.032 1096.84 39.032C1096.16 39.032 1095.73 38.9893 1095.56 38.904C1095.41 38.7973 1095.34 38.4987 1095.34 38.008L1095.21 32.152C1095.21 30.104 1095.22 28.8027 1095.24 28.248L1095.34 26.36C1095.34 25.7627 1095.43 25.4107 1095.62 25.304C1095.82 25.1973 1096.18 25.144 1096.71 25.144C1097.27 25.144 1097.74 25.176 1098.12 25.24C1098.16 26.1787 1098.18 26.9147 1098.18 27.448V32.056ZM1104.4 25.144L1105.9 25.112C1105.9 25.2187 1105.97 25.4853 1106.09 25.912C1106.22 25.8693 1106.59 25.7413 1107.18 25.528C1108.59 25.0373 1109.75 24.792 1110.67 24.792C1111.61 24.792 1112.43 24.9413 1113.13 25.24C1113.84 25.5173 1114.38 25.88 1114.77 26.328C1115.15 26.7547 1115.46 27.3307 1115.69 28.056C1116.04 29.2293 1116.21 30.7867 1116.21 32.728C1116.21 32.728 1116.15 34.552 1116.05 38.2C1116.05 38.6267 1116 38.872 1115.92 38.936C1115.85 39 1115.56 39.032 1115.02 39.032C1114.51 39.032 1113.91 38.9893 1113.23 38.904C1113.17 38.392 1113.13 37.496 1113.13 36.216L1113.17 32.12C1113.17 30.4133 1112.88 29.1333 1112.3 28.28C1111.73 27.4053 1110.73 26.968 1109.33 26.968C1107.94 26.968 1106.88 27.1707 1106.16 27.576L1106.22 31.864C1106.24 33.784 1106.25 35.2773 1106.25 36.344L1106.32 38.232C1106.32 38.5733 1106.23 38.7973 1106.06 38.904C1105.89 38.9893 1105.53 39.032 1104.97 39.032L1103.31 38.968L1103.18 32.28L1103.31 27.416V26.264C1103.31 25.5173 1103.67 25.144 1104.4 25.144ZM1123.85 29.4C1123.85 31.2773 1124.69 32.216 1126.38 32.216C1127.19 32.216 1127.81 31.9387 1128.23 31.384C1128.68 30.8293 1128.91 30.0827 1128.91 29.144C1128.91 28.184 1128.68 27.48 1128.23 27.032C1127.81 26.5627 1127.21 26.328 1126.44 26.328C1125.67 26.328 1125.04 26.6053 1124.55 27.16C1124.08 27.6933 1123.85 28.44 1123.85 29.4ZM1125.83 40.184H1125.19C1124.81 40.184 1124.23 40.0987 1123.47 39.928C1122.8 39.928 1122.47 40.7493 1122.47 42.392C1122.47 44.4187 1123.99 45.4853 1127.02 45.592C1128.4 45.592 1129.5 45.3147 1130.31 44.76C1131.12 44.2267 1131.53 43.4373 1131.53 42.392C1131.53 41.4107 1131.03 40.792 1130.03 40.536C1129.17 40.3013 1127.77 40.184 1125.83 40.184ZM1131.27 27.768C1131.36 28.28 1131.4 28.6107 1131.4 28.76C1131.4 30.1893 1130.9 31.448 1129.9 32.536C1129.6 32.856 1129.07 33.1867 1128.3 33.528C1127.53 33.8693 1126.7 34.0613 1125.8 34.104C1124.97 34.104 1124.45 34.1573 1124.23 34.264C1124.02 34.3493 1123.84 34.4347 1123.69 34.52C1123.56 34.6053 1123.47 34.712 1123.4 34.84C1123.23 35.1387 1123.15 35.4587 1123.15 35.8C1123.15 36.12 1123.21 36.3867 1123.34 36.6C1123.49 36.792 1123.63 36.9413 1123.75 37.048C1123.9 37.1333 1124.15 37.208 1124.49 37.272C1125 37.336 1126.03 37.3893 1127.56 37.432C1129.1 37.4533 1130.28 37.5493 1131.11 37.72C1133.48 38.2533 1134.67 39.608 1134.67 41.784C1134.67 42.8933 1134.25 43.8853 1133.42 44.76C1132.61 45.6347 1131.6 46.2747 1130.41 46.68C1129.24 47.1067 1128.13 47.32 1127.08 47.32C1126.06 47.32 1125.18 47.256 1124.46 47.128C1123.73 47 1123.01 46.7867 1122.28 46.488C1121.58 46.1893 1121.01 45.7413 1120.59 45.144C1120.16 44.568 1119.95 43.8853 1119.95 43.096C1119.95 42.3067 1120.14 41.5707 1120.52 40.888C1120.91 40.2267 1121.34 39.7253 1121.83 39.384C1120.89 38.5733 1120.43 37.7093 1120.43 36.792C1120.43 36.3013 1120.52 35.864 1120.71 35.48C1120.91 35.096 1121.1 34.8187 1121.29 34.648C1121.5 34.4773 1121.78 34.2853 1122.12 34.072C1122.48 33.8587 1122.73 33.6987 1122.86 33.592C1122.45 33.272 1122.13 32.9947 1121.9 32.76C1121.68 32.5253 1121.44 32.12 1121.16 31.544C1120.91 30.9467 1120.78 30.2853 1120.78 29.56C1120.78 28.1307 1121.34 26.9787 1122.47 26.104C1123.63 25.2293 1125.07 24.792 1126.79 24.792C1128.54 24.792 1129.77 25.208 1130.47 26.04C1131.84 25.1013 1133 24.632 1133.96 24.632C1134.26 24.632 1134.48 24.8347 1134.63 25.24C1134.8 25.6453 1134.89 26.0507 1134.89 26.456C1134.89 26.84 1134.84 27.0853 1134.73 27.192C1134.62 27.2773 1134.43 27.32 1134.15 27.32C1133 27.32 1132.04 27.4693 1131.27 27.768ZM1146.79 25.144L1148.3 25.112C1148.3 25.2187 1148.36 25.4853 1148.49 25.912C1148.62 25.8693 1148.98 25.7413 1149.58 25.528C1150.98 25.0373 1152.15 24.792 1153.06 24.792C1154 24.792 1154.82 24.9413 1155.53 25.24C1156.23 25.5173 1156.78 25.88 1157.16 26.328C1157.54 26.7547 1157.85 27.3307 1158.09 28.056C1158.43 29.2293 1158.6 30.7867 1158.6 32.728C1158.6 32.728 1158.55 34.552 1158.44 38.2C1158.44 38.6267 1158.4 38.872 1158.31 38.936C1158.25 39 1157.95 39.032 1157.42 39.032C1156.9 39.032 1156.31 38.9893 1155.62 38.904C1155.56 38.392 1155.53 37.496 1155.53 36.216L1155.56 32.12C1155.56 30.4133 1155.27 29.1333 1154.7 28.28C1154.12 27.4053 1153.13 26.968 1151.72 26.968C1150.33 26.968 1149.28 27.1707 1148.55 27.576L1148.62 31.864C1148.64 33.784 1148.65 35.2773 1148.65 36.344L1148.71 38.232C1148.71 38.5733 1148.63 38.7973 1148.46 38.904C1148.29 38.9893 1147.92 39.032 1147.37 39.032L1145.7 38.968L1145.58 32.28L1145.7 27.416V26.264C1145.7 25.5173 1146.07 25.144 1146.79 25.144ZM1172 39.032C1171.36 39.032 1171.06 38.68 1171.11 37.976C1171.11 37.7413 1171.08 37.624 1171.01 37.624C1170.84 37.688 1170.5 37.8693 1169.99 38.168C1167.45 39.7253 1165.22 39.8213 1163.3 38.456C1162.42 37.8373 1161.99 36.984 1161.99 35.896C1161.99 34.2533 1162.74 33.0587 1164.26 32.312C1165.8 31.5653 1167.69 31.192 1169.96 31.192C1170.36 31.192 1170.66 31.2027 1170.85 31.224C1170.85 30.8613 1170.86 30.6053 1170.88 30.456C1170.88 29.24 1170.54 28.3333 1169.86 27.736C1169.2 27.1173 1168.27 26.808 1167.08 26.808C1166.5 26.808 1165.88 26.8933 1165.22 27.064C1164.56 27.2347 1164.13 27.32 1163.94 27.32C1163.75 27.32 1163.59 27.2027 1163.46 26.968C1163.35 26.7333 1163.3 26.424 1163.3 26.04C1163.3 25.656 1163.77 25.3573 1164.71 25.144C1165.67 24.9093 1166.58 24.792 1167.46 24.792C1169.53 24.792 1171.1 25.336 1172.16 26.424C1173.25 27.512 1173.8 29.1013 1173.8 31.192V37.784C1173.8 38.36 1173.69 38.712 1173.48 38.84C1173.26 38.968 1172.77 39.032 1172 39.032ZM1170.82 35.672C1170.86 35.0747 1170.88 34.4347 1170.88 33.752C1170.88 33.0693 1170.87 32.6853 1170.85 32.6C1167.91 32.8773 1166.12 33.4107 1165.48 34.2C1165.13 34.6053 1164.96 35.0747 1164.96 35.608C1164.96 36.7387 1165.81 37.304 1167.49 37.304C1168.34 37.304 1169.1 37.112 1169.76 36.728C1170.45 36.3227 1170.8 35.9707 1170.82 35.672ZM1182.24 29.752L1182.18 34.36C1182.18 35.2347 1182.33 35.9067 1182.62 36.376C1182.92 36.824 1183.42 37.048 1184.13 37.048C1184.83 37.048 1185.43 36.984 1185.92 36.856C1186.84 36.6 1187.3 36.728 1187.3 37.24C1187.3 38.6693 1185.97 39.384 1183.33 39.384C1181.83 39.384 1180.67 38.712 1179.84 37.368C1179.43 36.5147 1179.23 35.5013 1179.23 34.328L1179.3 30.616L1179.36 27.928C1179.36 27.6293 1179.32 27.448 1179.23 27.384C1179.15 27.2987 1178.99 27.256 1178.75 27.256L1177.5 27.352C1176.97 27.352 1176.7 27.1813 1176.7 26.84C1176.7 26.2427 1176.77 25.8267 1176.9 25.592C1177.05 25.336 1177.31 25.208 1177.7 25.208L1178.94 25.304C1179.24 25.304 1179.39 24.9413 1179.39 24.216C1179.39 24.1307 1179.39 24.0773 1179.39 24.056V22.232C1179.39 21.6773 1179.4 21.3573 1179.42 21.272C1179.68 21.144 1180.52 21.08 1181.95 21.08C1182.34 21.08 1182.53 21.2827 1182.53 21.688L1182.43 25.208C1182.69 25.2293 1183.1 25.24 1183.68 25.24L1186.24 25.048C1186.58 25.048 1186.75 25.2507 1186.75 25.656C1186.75 26.8293 1186.18 27.416 1185.02 27.416L1182.94 27.288C1182.6 27.288 1182.39 27.3093 1182.3 27.352C1182.26 27.736 1182.24 28.536 1182.24 29.752ZM1191.56 20.6C1191.34 20.536 1191.09 20.3227 1190.79 19.96C1190.51 19.576 1190.37 19.224 1190.37 18.904C1190.39 18.5627 1190.61 18.2213 1191.01 17.88C1191.44 17.5173 1191.98 17.336 1192.64 17.336C1193.63 17.336 1194.12 17.8053 1194.12 18.744C1194.12 19.4053 1193.9 19.896 1193.48 20.216C1193.07 20.536 1192.7 20.696 1192.36 20.696C1192.04 20.696 1191.77 20.664 1191.56 20.6ZM1193.54 32.056L1193.64 38.392C1193.64 38.648 1193.6 38.808 1193.54 38.872C1193.33 38.9787 1192.88 39.032 1192.2 39.032C1191.51 39.032 1191.09 38.9893 1190.92 38.904C1190.77 38.7973 1190.69 38.4987 1190.69 38.008L1190.56 32.152C1190.56 30.104 1190.57 28.8027 1190.6 28.248L1190.69 26.36C1190.69 25.7627 1190.79 25.4107 1190.98 25.304C1191.17 25.1973 1191.53 25.144 1192.07 25.144C1192.62 25.144 1193.09 25.176 1193.48 25.24C1193.52 26.1787 1193.54 26.9147 1193.54 27.448V32.056ZM1212.43 31.768C1212.43 33.9653 1211.67 35.7893 1210.16 37.24C1208.66 38.6693 1206.86 39.384 1204.75 39.384C1202.66 39.384 1200.92 38.7227 1199.53 37.4C1198.17 36.0773 1197.48 34.296 1197.48 32.056C1197.48 29.7947 1198.21 28.024 1199.66 26.744C1201.13 25.4427 1203.15 24.792 1205.71 24.792C1207.14 24.792 1208.56 25.24 1209.96 26.136C1210.69 26.6267 1211.28 27.3627 1211.72 28.344C1212.19 29.304 1212.43 30.4453 1212.43 31.768ZM1205.2 37.016C1206.54 37.016 1207.62 36.536 1208.43 35.576C1209.26 34.5947 1209.68 33.3893 1209.68 31.96C1209.68 30.5307 1209.31 29.3467 1208.59 28.408C1207.88 27.4693 1206.84 27 1205.45 27C1204.09 27 1202.93 27.4267 1202 28.28C1201.08 29.1333 1200.62 30.3493 1200.62 31.928C1200.62 33.5067 1201.05 34.7547 1201.9 35.672C1202.75 36.568 1203.85 37.016 1205.2 37.016ZM1217.6 25.144L1219.11 25.112C1219.11 25.2187 1219.17 25.4853 1219.3 25.912C1219.43 25.8693 1219.79 25.7413 1220.39 25.528C1221.8 25.0373 1222.96 24.792 1223.88 24.792C1224.82 24.792 1225.64 24.9413 1226.34 25.24C1227.04 25.5173 1227.59 25.88 1227.97 26.328C1228.36 26.7547 1228.67 27.3307 1228.9 28.056C1229.24 29.2293 1229.41 30.7867 1229.41 32.728C1229.41 32.728 1229.36 34.552 1229.25 38.2C1229.25 38.6267 1229.21 38.872 1229.12 38.936C1229.06 39 1228.76 39.032 1228.23 39.032C1227.72 39.032 1227.12 38.9893 1226.44 38.904C1226.37 38.392 1226.34 37.496 1226.34 36.216L1226.37 32.12C1226.37 30.4133 1226.08 29.1333 1225.51 28.28C1224.93 27.4053 1223.94 26.968 1222.53 26.968C1221.15 26.968 1220.09 27.1707 1219.36 27.576L1219.43 31.864C1219.45 33.784 1219.46 35.2773 1219.46 36.344L1219.52 38.232C1219.52 38.5733 1219.44 38.7973 1219.27 38.904C1219.1 38.9893 1218.74 39.032 1218.18 39.032L1216.52 38.968L1216.39 32.28L1216.52 27.416V26.264C1216.52 25.5173 1216.88 25.144 1217.6 25.144Z" fill="white"/>
<path d="M227.56 165.32V162.86H241.18V165.32L236.14 166.04L226 203.42H223.42L213.04 172.34L203.26 203.42H200.68L189.88 165.92L184.9 165.32V162.86H201.22V165.32L195.7 165.98L203.08 193.52L212.2 166.04L206.2 165.32V162.86H222.52V165.32L216.46 166.04L225.4 193.82L233.02 166.1L227.56 165.32ZM257.578 176.48C256.458 176.48 255.318 176.8 254.158 177.44C253.038 178.08 252.058 179.1 251.218 180.5C250.418 181.9 249.898 183.76 249.658 186.08H260.578C262.018 186.08 262.958 185.78 263.398 185.18C263.878 184.58 264.118 183.84 264.118 182.96C264.118 181.8 263.818 180.74 263.218 179.78C262.658 178.78 261.878 177.98 260.878 177.38C259.918 176.78 258.818 176.48 257.578 176.48ZM257.518 203.78C253.478 203.78 250.238 202.48 247.798 199.88C245.358 197.24 244.138 193.62 244.138 189.02C244.138 185.94 244.758 183.26 245.998 180.98C247.278 178.7 248.958 176.92 251.038 175.64C253.158 174.36 255.458 173.72 257.938 173.72C260.018 173.72 261.898 174.18 263.578 175.1C265.258 176.02 266.598 177.34 267.598 179.06C268.598 180.74 269.098 182.8 269.098 185.24C269.098 185.92 269.058 186.56 268.978 187.16C268.898 187.72 268.798 188.2 268.678 188.6H249.538C249.618 192.28 250.538 195.08 252.298 197C254.058 198.92 256.378 199.88 259.258 199.88C261.178 199.88 262.778 199.5 264.058 198.74C265.338 197.94 266.518 196.92 267.598 195.68L269.038 196.82C267.918 198.94 266.398 200.64 264.478 201.92C262.558 203.16 260.238 203.78 257.518 203.78ZM276.938 203V200.84L281.738 200C281.778 198.36 281.798 196.76 281.798 195.2C281.838 193.6 281.858 192 281.858 190.4V164.06L276.938 163.46V161.36L286.298 158.66L287.138 159.14L286.898 167.66V190.4C286.898 192 286.898 193.6 286.898 195.2C286.938 196.8 286.978 198.4 287.018 200L291.818 200.84V203H276.938ZM313.329 203.78C309.209 203.78 305.929 202.44 303.489 199.76C301.049 197.08 299.829 193.44 299.829 188.84C299.829 185.68 300.469 182.98 301.749 180.74C303.069 178.46 304.789 176.72 306.909 175.52C309.029 174.32 311.289 173.72 313.689 173.72C315.489 173.72 317.149 174.06 318.669 174.74C320.189 175.42 321.449 176.36 322.449 177.56C323.449 178.72 324.069 180.04 324.309 181.52C324.029 183.04 323.109 183.8 321.549 183.8C320.549 183.8 319.789 183.54 319.269 183.02C318.789 182.46 318.449 181.76 318.249 180.92L317.169 176.96C316.609 176.76 316.049 176.64 315.489 176.6C314.969 176.52 314.449 176.48 313.929 176.48C311.369 176.48 309.249 177.48 307.569 179.48C305.929 181.48 305.109 184.4 305.109 188.24C305.109 192 306.009 194.88 307.809 196.88C309.609 198.88 311.909 199.88 314.709 199.88C316.429 199.88 318.009 199.5 319.449 198.74C320.889 197.94 322.069 196.8 322.989 195.32L324.489 196.1C323.649 198.58 322.289 200.48 320.409 201.8C318.529 203.12 316.169 203.78 313.329 203.78ZM347.045 203.78C344.725 203.78 342.505 203.24 340.385 202.16C338.305 201.04 336.605 199.38 335.285 197.18C333.965 194.94 333.305 192.18 333.305 188.9C333.305 185.58 333.965 182.8 335.285 180.56C336.605 178.28 338.305 176.58 340.385 175.46C342.505 174.3 344.725 173.72 347.045 173.72C349.365 173.72 351.565 174.3 353.645 175.46C355.765 176.58 357.485 178.28 358.805 180.56C360.165 182.8 360.845 185.58 360.845 188.9C360.845 192.18 360.165 194.94 358.805 197.18C357.485 199.38 355.765 201.04 353.645 202.16C351.565 203.24 349.365 203.78 347.045 203.78ZM347.045 201.08C349.645 201.08 351.645 200.06 353.045 198.02C354.445 195.94 355.145 192.9 355.145 188.9C355.145 184.86 354.445 181.78 353.045 179.66C351.645 177.54 349.645 176.48 347.045 176.48C344.445 176.48 342.445 177.54 341.045 179.66C339.685 181.78 339.005 184.86 339.005 188.9C339.005 192.9 339.685 195.94 341.045 198.02C342.445 200.06 344.445 201.08 347.045 201.08ZM369.935 203V200.84L374.375 200C374.415 198.48 374.435 196.84 374.435 195.08C374.475 193.32 374.495 191.76 374.495 190.4V187.52C374.495 185.88 374.475 184.52 374.435 183.44C374.435 182.36 374.395 181.22 374.315 180.02L369.575 179.48V177.38L377.975 173.72L378.875 174.32L379.355 179.18C380.755 177.58 382.395 176.28 384.275 175.28C386.155 174.24 388.015 173.72 389.855 173.72C391.735 173.72 393.255 174.16 394.415 175.04C395.615 175.92 396.475 177.36 396.995 179.36C398.515 177.48 400.215 176.08 402.095 175.16C403.975 174.2 405.895 173.72 407.855 173.72C410.295 173.72 412.175 174.54 413.495 176.18C414.855 177.82 415.535 180.5 415.535 184.22V190.4C415.535 191.76 415.535 193.32 415.535 195.08C415.575 196.84 415.615 198.48 415.655 200L419.855 200.84V203H405.935V200.84L410.375 200C410.415 198.52 410.435 196.9 410.435 195.14C410.475 193.34 410.495 191.76 410.495 190.4V185.18C410.495 182.38 410.095 180.5 409.295 179.54C408.495 178.54 407.215 178.04 405.455 178.04C404.215 178.04 402.935 178.32 401.615 178.88C400.335 179.44 398.935 180.42 397.415 181.82C397.455 182.26 397.475 182.74 397.475 183.26C397.515 183.74 397.535 184.26 397.535 184.82V190.4C397.535 191.76 397.535 193.32 397.535 195.08C397.575 196.84 397.615 198.48 397.655 200L401.855 200.84V203H387.935V200.84L392.375 200C392.415 198.52 392.435 196.9 392.435 195.14C392.475 193.34 392.495 191.76 392.495 190.4V185.3C392.495 182.58 392.115 180.7 391.355 179.66C390.595 178.58 389.335 178.04 387.575 178.04C386.215 178.04 384.915 178.32 383.675 178.88C382.435 179.44 381.075 180.36 379.595 181.64V190.4C379.595 191.72 379.595 193.28 379.595 195.08C379.635 196.84 379.675 198.48 379.715 200L383.855 200.84V203H369.935ZM441.757 176.48C440.637 176.48 439.497 176.8 438.337 177.44C437.217 178.08 436.237 179.1 435.397 180.5C434.597 181.9 434.077 183.76 433.837 186.08H444.757C446.197 186.08 447.137 185.78 447.577 185.18C448.057 184.58 448.297 183.84 448.297 182.96C448.297 181.8 447.997 180.74 447.397 179.78C446.837 178.78 446.057 177.98 445.057 177.38C444.097 176.78 442.997 176.48 441.757 176.48ZM441.697 203.78C437.657 203.78 434.417 202.48 431.977 199.88C429.537 197.24 428.317 193.62 428.317 189.02C428.317 185.94 428.937 183.26 430.177 180.98C431.457 178.7 433.137 176.92 435.217 175.64C437.337 174.36 439.637 173.72 442.117 173.72C444.197 173.72 446.077 174.18 447.757 175.1C449.437 176.02 450.777 177.34 451.777 179.06C452.777 180.74 453.277 182.8 453.277 185.24C453.277 185.92 453.237 186.56 453.157 187.16C453.077 187.72 452.977 188.2 452.857 188.6H433.717C433.797 192.28 434.717 195.08 436.477 197C438.237 198.92 440.557 199.88 443.437 199.88C445.357 199.88 446.957 199.5 448.237 198.74C449.517 197.94 450.697 196.92 451.777 195.68L453.217 196.82C452.097 198.94 450.577 200.64 448.657 201.92C446.737 203.16 444.417 203.78 441.697 203.78ZM495.487 183.62H492.187C492.187 186.78 492.187 189.7 492.187 192.38C492.227 195.02 492.267 197.62 492.307 200.18H495.967C499.807 200.18 502.667 199.48 504.547 198.08C506.427 196.68 507.367 194.66 507.367 192.02C507.367 189.22 506.427 187.12 504.547 185.72C502.667 184.32 499.647 183.62 495.487 183.62ZM496.447 165.62H492.307C492.267 168.18 492.227 170.78 492.187 173.42C492.187 176.02 492.187 178.5 492.187 180.86H495.307C498.947 180.86 501.587 180.24 503.227 179C504.867 177.76 505.687 175.78 505.687 173.06C505.687 170.34 504.907 168.42 503.347 167.3C501.827 166.18 499.527 165.62 496.447 165.62ZM480.847 165.32V162.86H498.247C502.407 162.86 505.627 163.78 507.907 165.62C510.187 167.46 511.327 169.8 511.327 172.64C511.327 174.76 510.607 176.7 509.167 178.46C507.727 180.22 505.347 181.44 502.027 182.12C506.027 182.68 508.907 183.86 510.667 185.66C512.467 187.46 513.367 189.58 513.367 192.02C513.367 193.82 512.827 195.56 511.747 197.24C510.707 198.92 509.007 200.3 506.647 201.38C504.287 202.46 501.187 203 497.347 203H480.847V200.54L486.367 199.88C486.447 197.36 486.487 194.8 486.487 192.2C486.487 189.6 486.487 187 486.487 184.4V181.46C486.487 178.86 486.487 176.28 486.487 173.72C486.487 171.12 486.447 168.54 486.367 165.98L480.847 165.32ZM544.901 203.6C543.461 203.6 542.261 203.18 541.301 202.34C540.341 201.5 539.741 200.38 539.501 198.98C537.861 200.58 536.421 201.78 535.181 202.58C533.941 203.38 532.441 203.78 530.681 203.78C528.481 203.78 526.581 203.16 524.981 201.92C523.421 200.64 522.641 198.76 522.641 196.28C522.641 195.12 522.901 194.04 523.421 193.04C523.981 192.04 524.981 191.06 526.421 190.1C527.861 189.14 529.921 188.18 532.601 187.22C533.521 186.9 534.581 186.56 535.781 186.2C536.981 185.84 538.181 185.52 539.381 185.24V183.74C539.381 180.82 538.941 178.88 538.061 177.92C537.181 176.96 535.741 176.48 533.741 176.48C533.301 176.48 532.801 176.5 532.241 176.54C531.721 176.58 531.141 176.68 530.501 176.84L529.361 180.74C528.801 182.66 527.761 183.62 526.241 183.62C524.561 183.62 523.621 182.8 523.421 181.16C523.981 178.88 525.301 177.08 527.381 175.76C529.501 174.4 532.081 173.72 535.121 173.72C538.281 173.72 540.621 174.52 542.141 176.12C543.661 177.68 544.421 180.36 544.421 184.16V196.94C544.421 198.22 544.621 199.14 545.021 199.7C545.421 200.22 545.941 200.48 546.581 200.48C547.101 200.48 547.541 200.36 547.901 200.12C548.261 199.88 548.601 199.56 548.921 199.16L550.121 200.48C549.401 201.64 548.601 202.46 547.721 202.94C546.881 203.38 545.941 203.6 544.901 203.6ZM527.981 195.38C527.981 196.98 528.441 198.12 529.361 198.8C530.281 199.48 531.421 199.82 532.781 199.82C533.381 199.82 533.941 199.74 534.461 199.58C535.021 199.42 535.681 199.12 536.441 198.68C537.201 198.2 538.181 197.52 539.381 196.64V187.46C538.341 187.74 537.321 188.06 536.321 188.42C535.321 188.74 534.501 189.02 533.861 189.26C532.141 189.94 530.861 190.64 530.021 191.36C529.181 192.08 528.621 192.78 528.341 193.46C528.101 194.14 527.981 194.78 527.981 195.38ZM570.489 203.78C566.369 203.78 563.089 202.44 560.649 199.76C558.209 197.08 556.989 193.44 556.989 188.84C556.989 185.68 557.629 182.98 558.909 180.74C560.229 178.46 561.949 176.72 564.069 175.52C566.189 174.32 568.449 173.72 570.849 173.72C572.649 173.72 574.309 174.06 575.829 174.74C577.349 175.42 578.609 176.36 579.609 177.56C580.609 178.72 581.229 180.04 581.469 181.52C581.189 183.04 580.269 183.8 578.709 183.8C577.709 183.8 576.949 183.54 576.429 183.02C575.949 182.46 575.609 181.76 575.409 180.92L574.329 176.96C573.769 176.76 573.209 176.64 572.649 176.6C572.129 176.52 571.609 176.48 571.089 176.48C568.529 176.48 566.409 177.48 564.729 179.48C563.089 181.48 562.269 184.4 562.269 188.24C562.269 192 563.169 194.88 564.969 196.88C566.769 198.88 569.069 199.88 571.869 199.88C573.589 199.88 575.169 199.5 576.609 198.74C578.049 197.94 579.229 196.8 580.149 195.32L581.649 196.1C580.809 198.58 579.449 200.48 577.569 201.8C575.689 203.12 573.329 203.78 570.489 203.78ZM588.621 203V200.84L593.421 200C593.461 198.4 593.481 196.8 593.481 195.2C593.521 193.56 593.541 191.96 593.541 190.4V164.06L588.621 163.46V161.36L597.981 158.66L598.821 159.14L598.581 167.66V188.6L608.841 177.92L604.401 176.84V174.5H618.381V176.84L612.741 177.68L606.141 184.46L615.981 200.12L619.941 200.84V203H611.781L602.541 188.12L598.581 192.2C598.581 193.48 598.581 194.78 598.581 196.1C598.621 197.42 598.661 198.72 598.701 200L603.501 200.84V203H588.621ZM636.714 201.26C636.714 203.66 636.134 205.88 634.974 207.92C633.854 209.96 632.414 211.7 630.654 213.14C628.894 214.62 627.054 215.72 625.134 216.44L624.294 214.4C626.334 213.36 628.134 212.1 629.694 210.62C631.254 209.14 632.394 207.28 633.114 205.04L630.894 203.3C630.094 202.66 629.514 201.98 629.154 201.26C628.794 200.5 628.614 199.74 628.614 198.98C628.614 197.94 628.914 197.06 629.514 196.34C630.154 195.58 631.094 195.2 632.334 195.2C632.894 195.2 633.454 195.32 634.014 195.56C634.614 195.8 635.294 196.26 636.054 196.94C636.294 197.7 636.454 198.44 636.534 199.16C636.654 199.84 636.714 200.54 636.714 201.26Z" fill="white"/>
</g>
<defs>
<clipPath id="clip0_5_1868">
<rect width="1250" height="384" fill="white"/>
</clipPath>
</defs>
</svg>
